<svg width="119" height="119" viewBox="0 0 119 119" fill="none" xmlns="http://www.w3.org/2000/svg">
<path d="M59.5001 112.802C30.0972 112.802 6.198 88.9028 6.198 59.4998C6.198 30.0969 30.0972 6.19775 59.5001 6.19775C88.903 6.19775 112.802 30.0969 112.802 59.4998C112.802 88.9028 88.903 112.802 59.5001 112.802ZM59.5001 13.6353C34.2126 13.6353 13.6355 34.2123 13.6355 59.4998C13.6355 84.7873 34.2126 105.364 59.5001 105.364C84.7876 105.364 105.365 84.7873 105.365 59.4998C105.365 34.2123 84.7876 13.6353 59.5001 13.6353Z" fill="#FDFFFB"/>
<path d="M45.4678 77.251C44.5257 77.251 43.5837 76.9039 42.8399 76.1601C41.402 74.7222 41.402 72.3422 42.8399 70.9043L70.9041 42.8402C72.342 41.4022 74.722 41.4022 76.1599 42.8402C77.5978 44.2781 77.5978 46.6581 76.1599 48.096L48.0957 76.1601C47.4016 76.9039 46.4099 77.251 45.4678 77.251Z" fill="#FDFFFB"/>
<path d="M73.532 77.251C72.5899 77.251 71.6478 76.9039 70.9041 76.1601L42.8399 48.096C41.402 46.6581 41.402 44.2781 42.8399 42.8402C44.2778 41.4022 46.6578 41.4022 48.0957 42.8402L76.1599 70.9043C77.5978 72.3422 77.5978 74.7222 76.1599 76.1601C75.4162 76.9039 74.4741 77.251 73.532 77.251Z" fill="#FDFFFB"/>
</svg>
