<svg width="989" height="2119" viewBox="0 0 989 2119" fill="none" xmlns="http://www.w3.org/2000/svg">
<path d="M738.499 1532.5C723.699 1542.1 715.999 1562.17 713.999 1571C712.666 1567.83 709 1560.2 705 1555C700 1548.5 688.5 1545.5 679 1541C669.5 1536.5 666.5 1539.5 656 1539C645.5 1538.5 630 1536 620.5 1532.5C611 1529 602.5 1519 596.5 1511.5C590.5 1504 578 1472.5 571 1461C564 1449.5 555 1430 550.5 1425C546 1420 542 1419.5 538.5 1417.5C535 1415.5 535.5 1411 536.999 1408.5C538.499 1406 541.5 1395.5 545.5 1382C549.5 1368.5 546.5 1323.5 546.5 1312.5C546.5 1301.5 537.999 1277.5 536.999 1272C535.999 1266.5 537.999 1265 541.499 1264C544.999 1263 568.499 1262 580.999 1261.5C593.499 1261 629.999 1271 636.499 1275.5C642.999 1280 671.999 1283 680.499 1285.5C688.999 1288 713.999 1283 724.999 1283C735.999 1283 744.499 1275.5 753.499 1273.5C762.499 1271.5 767.499 1267 774.499 1265C781.499 1263 782.999 1265 784.499 1267C785.999 1269 791.999 1287.5 791.999 1294.5C791.999 1301.5 792.999 1310.5 793.999 1318.5C794.999 1326.5 812.999 1353.5 819.999 1359.5C826.999 1365.5 838.499 1389 841.499 1395C844.499 1401 840.999 1407 839.499 1411C837.999 1415 829.999 1421 826.999 1425.5C823.999 1430 824.999 1441 824.999 1446C824.999 1451 822.999 1452.5 818.999 1455.5C814.999 1458.5 811.999 1456.5 806.999 1463C801.999 1469.5 808.999 1497 809.999 1505.5C810.999 1514 809.999 1526 808.999 1529.5C807.999 1533 802.499 1532.5 796.499 1529.5C790.499 1526.5 777.499 1521 769.499 1519C761.499 1517 756.999 1520.5 738.499 1532.5Z" fill="#7DB765" fill-opacity="0.2" stroke="white" stroke-width="5"/>
<path d="M548.999 1424C546.599 1420.4 537.999 1415.83 533.999 1414C533.166 1413.5 530.7 1414.8 527.5 1424C523.5 1435.5 491 1470 476.5 1486C462 1502 410 1531 402 1535.5C394 1540 378.999 1546 374.499 1547C369.999 1548 371.999 1550 371.499 1553.5C370.999 1557 381.499 1578.5 390.999 1593C400.499 1607.5 411.499 1607 418.499 1608C425.499 1609 435.499 1604.5 444.499 1603.5C453.499 1602.5 454.499 1605 460.499 1610C466.499 1615 466.499 1633.5 469.499 1644.5C472.499 1655.5 474.499 1660.5 484.499 1663C494.499 1665.5 511.999 1643 514.499 1640.5C516.999 1638 525.499 1636 530.999 1638.5C536.499 1641 544.499 1656.5 547.499 1663C550.499 1669.5 555.499 1679.5 557.999 1687C560.499 1694.5 566.999 1698 572.499 1703C577.956 1707.96 583.413 1708.98 591.313 1710.47L591.499 1710.5C599.499 1712 602.499 1708 613.499 1713.5C624.499 1719 625.999 1725 628.499 1729.5C630.999 1734 631.499 1742 630.999 1749C630.499 1756 634.999 1770 636.999 1774.5C638.999 1779 649.499 1793.5 655.499 1800.5C661.499 1807.5 662.499 1812.5 672.499 1834C682.499 1855.5 687.999 1854.5 692.999 1855.5C697.999 1856.5 702.499 1849 706.499 1846.5C710.499 1844 714.999 1840.5 716.999 1837.5C718.999 1834.5 724.499 1832.5 731.499 1834C738.499 1835.5 743.999 1846.5 748.999 1853.5C753.999 1860.5 776.999 1869.5 787.499 1874.5L787.749 1874.62C798.437 1879.71 826.034 1892.85 830.499 1874.5C834.999 1856 820.999 1853.5 814.999 1846.5C808.999 1839.5 792.499 1838.5 785.999 1835.5C779.499 1832.5 771.499 1831.5 768.999 1830C766.499 1828.5 762.499 1823.5 760.999 1820C759.499 1816.5 766.499 1807.5 768.999 1805C771.499 1802.5 771.499 1794.5 771.499 1791.5C771.499 1788.5 765.999 1782 760.999 1777.5C755.999 1773 753.999 1769 752.499 1765.5C750.999 1762 754.999 1761.5 756.499 1758C757.999 1754.5 763.999 1753 767.499 1750.5C770.999 1748 771.499 1744.5 771.499 1740.5C771.499 1736.5 766.999 1733 763.999 1729.5C760.999 1726 758.499 1721.5 758.999 1717C759.499 1712.5 766.999 1712.5 771.499 1710.5C775.999 1708.5 787.999 1711 794.999 1705C801.999 1699 795.499 1699 789.999 1693.5C784.499 1688 762.999 1686.5 752.499 1682.5C741.999 1678.5 733.999 1667.5 730.999 1663C727.999 1658.5 724.999 1647.5 723.999 1643C722.999 1638.5 713.999 1625 710.499 1617.5C706.999 1610 708.499 1597.5 710.499 1590.5C712.499 1583.5 713.499 1571 712.499 1564.5C711.499 1558 705.5 1554 699.499 1549.5C694.117 1545.46 684.499 1542 675.499 1539.5C666.499 1537 656.999 1540.5 640.499 1538C623.999 1535.5 612.999 1528 610.499 1526.5C607.999 1525 598.499 1513 595.999 1509.5C593.499 1506 581.999 1481 578.999 1473C575.999 1465 566.999 1456 564.499 1447.5C561.999 1439 551.999 1428.5 548.999 1424Z" fill="#7DB765" fill-opacity="0.2" stroke="white" stroke-width="5"/>
<path d="M390.499 1593C385.299 1587.8 374.666 1561.5 369.999 1549C359.499 1551.5 336.2 1557.1 327 1559.5C315.5 1562.5 289.5 1560 280.5 1559.5C271.5 1559 264 1553 257 1550.5C250 1548 251.5 1552.5 248.5 1557.5C245.5 1562.5 242.999 1583 240.499 1593C237.999 1603 243.499 1615 246.499 1627C249.499 1639 265.999 1654 272.499 1658.5C278.999 1663 286.999 1677.5 287.499 1682C287.999 1686.5 281.499 1704.5 278.499 1713.5C275.499 1722.5 278.999 1734.5 281.499 1747C283.999 1759.5 296.499 1774.5 299.499 1779.5C302.499 1784.5 320.999 1800 324.499 1802.5C327.999 1805 330.499 1800 337.499 1797.5C344.499 1795 366.499 1793.5 386.999 1793.5C407.499 1793.5 418.499 1799 432.999 1802.5C447.499 1806 453.999 1812.5 457.999 1815C461.999 1817.5 463.499 1814 465.499 1811.5C467.499 1809 479.499 1792 483.499 1785C487.499 1778 504.499 1765 510.999 1757C517.499 1749 559.999 1728 574.499 1721C588.999 1714 590.499 1713 584.499 1710.5C578.499 1708 560.499 1694.5 554.999 1683C549.499 1671.5 541.499 1647.5 535.499 1641.5C529.499 1635.5 526.499 1638 520.499 1638.5C514.499 1639 502.499 1651.5 496.499 1658C490.499 1664.5 486.999 1664 479.499 1664C471.999 1664 473.499 1654.5 470.999 1647.5C468.499 1640.5 466.499 1619.5 460.499 1610C454.499 1600.5 441.499 1605 435.499 1605.5C429.499 1606 419.499 1609 410.499 1607C401.499 1605 396.999 1599.5 390.499 1593Z" fill="#7DB765" fill-opacity="0.2" stroke="white" stroke-width="5"/>
<path d="M221 2029.5C207.8 2031.1 194.833 2022.83 190 2018.5C196 2006.67 208.9 1981 212.5 1973C217 1963 245.5 1923.5 252.5 1916.5C259.5 1909.5 280.5 1876.5 291.5 1868C302.5 1859.5 314.5 1837.5 316.5 1827C318.5 1816.5 324 1810 327 1804.5C330 1799 333 1800 339 1798C345 1796 366 1794.5 387 1793.5C408 1792.5 425 1800.5 436.5 1804.5C448 1808.5 458 1813.5 461 1816C464 1818.5 461.5 1823 461 1825.5C460.5 1828 451.5 1850 447.5 1856C443.5 1862 436 1897 431 1910.5C426 1924 425.5 1931 424 1946.5C422.5 1962 425.296 1962.43 431 1967.5C435.5 1971.5 441 1975 441 1981C441 1985.3 437.5 2001 435.5 2012.5C433.5 2024 424 2026 418.5 2029C413 2032 383 2031.5 377.5 2032C372 2032.5 349.5 2039.5 349.5 2058C349.5 2076.5 346 2082 342.5 2088.5C339 2095 330 2097.5 322 2099C314 2100.5 303 2101 295 2102C287 2103 280 2107 275 2110C270 2113 262 2118 257 2115C252 2112 257 2102.5 257 2095C257 2087.5 265.5 2056 267 2050C268.5 2044 269.5 2028 259.5 2023.5C249.5 2019 237.5 2027.5 221 2029.5Z" fill="#7DB765" fill-opacity="0.2" stroke="white" stroke-width="5"/>
<path d="M90.0005 1587C81.5005 1576 88.0005 1561 88.5005 1560C89.3337 1559.33 93.2 1557.9 102 1557.5C113 1557 126 1560.5 140 1574.5C152.87 1587.37 175 1586 181 1586C187 1586 224.5 1571.5 234 1567C243.5 1562.5 246.5 1560.5 247.5 1563C248.5 1565.5 246 1572.5 243.5 1578.5C241 1584.5 241 1611.5 243.5 1618.5C246 1625.5 248 1641 270 1659.5C292 1678 287 1683.5 286 1691.5C285 1699.5 276.5 1705 277.5 1725.5C278.5 1746 286.5 1756 290.5 1765.5C294.5 1775 306 1785.5 309 1789.5C312 1793.5 330.5 1804 327.5 1805C324.5 1806 322.5 1810 320 1814C317.5 1818 316 1831 311.5 1842.5C307 1854 249 1918 238.5 1933C228 1948 207.5 1984.5 205.5 1988C203.5 1991.5 196 2011 195 2014C194 2017 191 2019.5 186 2017.5C181 2015.5 180.5 2012.5 176 2006.5C171.5 2000.5 172.5 1995.5 170 1988C167.5 1980.5 168.5 1972.5 168.5 1964C168.5 1955.5 177.5 1946.5 182.5 1943.5C187.5 1940.5 202 1929 207.5 1926C213 1923 211.5 1915.5 212.5 1911C213.5 1906.5 205 1900 204 1896C203 1892 206.5 1893.5 209.5 1891C212.5 1888.5 217.5 1885.5 220.5 1881C223.5 1876.5 222.5 1856 222.5 1849C222.5 1842 216 1820.5 212.5 1820.5C209 1820.5 207 1819.5 199 1820.5C191 1821.5 189 1819 182.5 1816C176 1813 174 1808 174 1800.5C174 1793 179 1780 182.5 1774C186 1768 189 1763.5 192 1756C195 1748.5 195.5 1736 195.5 1731.5C195.5 1727 190 1702 189 1696.5C188 1691 182 1669 179 1656.5C176 1644 163.5 1619.5 157 1614C150.5 1608.5 130.5 1602.5 123 1599.5C115.5 1596.5 98.5005 1598 90.0005 1587Z" fill="#7DB765" fill-opacity="0.2" stroke="white" stroke-width="5"/>
<path d="M116.501 1351.5C113.301 1350.3 102.834 1339 98.0006 1333.5C99.6671 1329 103.9 1317.9 107.5 1309.5C112 1299 116.501 1296 128 1284.5C139.499 1273 204 1275 215 1277C226 1279 245 1286.5 257 1305C285 1354 274.5 1409.5 274.5 1415C274.5 1420.5 259.5 1505 258.5 1513C257.5 1521 253.5 1540.5 252 1544.5C250.5 1548.5 250 1556.5 246.5 1561C243 1565.5 220.5 1573 217 1575C213.5 1577 191 1584.5 183.5 1586.5C176 1588.5 163 1586 157 1584.5C151 1583 142.001 1577 130.501 1567C119.001 1557 113 1559.5 105.5 1558C98 1556.5 93 1560.5 90.5 1560.5C88 1560.5 88.5 1558 88.5 1554C88.5 1550 90.5 1546 90.5 1541C90.5 1536 87.5 1536 83.5007 1533C79.5013 1530 71 1534 65 1534.5C59 1535 52.5 1535 47.5 1533C42.5 1531 32.5007 1516.5 31.0007 1508.5C29.5007 1500.5 31.0007 1478.5 31.0007 1475C31.0007 1471.5 33.5007 1467 36.5007 1465C39.5007 1463 46.5007 1466 50.0007 1467C53.5007 1468 57.0007 1465.5 63.0007 1464C69.0007 1462.5 68.5007 1466 72.5007 1468.5C76.5007 1471 81.5007 1486.5 83.5007 1490.5C85.5007 1494.5 91.0006 1495 96.0006 1496C101.001 1497 115.001 1488 119.501 1486.5C124.001 1485 127.001 1481 130.501 1480C134.001 1479 136.001 1481 142.001 1481C148.001 1481 150.001 1482 155.001 1481C160.001 1480 169.501 1473.5 175.501 1451.5C181.501 1429.5 176.501 1407 174.501 1394.5C172.501 1382 160.001 1372 156.501 1367C153.001 1362 143.001 1359.5 139.001 1357.5C135.001 1355.5 120.501 1353 116.501 1351.5Z" fill="#7DB765" fill-opacity="0.2" stroke="white" stroke-width="5"/>
<path d="M276.5 1376C278.551 1336.21 255.333 1299.83 242 1286.5C250.5 1278 259 1254.3 263 1247.5C268 1239 272 1218.5 272.5 1215.5C273 1212.5 275.5 1206.5 278 1205.5C280.5 1204.5 282.5 1208.5 289.5 1210.5C296.5 1212.5 302.5 1206.5 309.5 1204.5C316.5 1202.5 316 1202 326.5 1197C337 1192 350.5 1193 365 1192C379.5 1191 391 1194 400 1194.5C409 1195 419.5 1205 424 1207.5C428.5 1210 434.5 1219.5 439 1223C452 1230.5 453.5 1223 459.5 1219.5C465.5 1216 465 1213 467 1211C469 1209 473.5 1208.5 476.5 1210C479.5 1211.5 487.5 1237.5 490.5 1243C493.5 1248.5 498.5 1255.5 510 1262.5C521.5 1269.5 534 1264.5 537 1266.5C540 1268.5 543 1287 546 1295.5C549 1304 548 1329.5 548.5 1338C549 1346.5 547.5 1364.5 546 1373.5C544.5 1382.5 539 1398 530.5 1419.5C522 1441 481 1481 477.5 1485C450 1520.5 354 1559 325 1561.5C296 1564 272 1555.5 264.5 1554.5C257 1553.5 252 1550 251.5 1543.5C251 1537 271.5 1473 276.5 1376Z" fill="#7DB765" fill-opacity="0.2" stroke="white" stroke-width="5"/>
<path d="M98.9983 1122C92.9983 1116.8 86.8316 1100.17 84.4983 1092.5C85.6655 1091.83 88.8 1090.2 92 1089C96 1087.5 110.5 1089 117 1090.5C123.5 1092 149.5 1100 158 1103C166.5 1106 176.5 1111.5 189 1111.5C201.5 1111.5 229 1119 238.5 1124C248 1129 257.5 1148.5 265 1156C272.5 1163.5 275.5 1165.5 278 1178.5C280.5 1191.5 273.5 1209.5 272.5 1218.5C271.5 1227.5 258.5 1256 256 1263C253.5 1270 247.5 1279 245 1282C242.5 1285 242 1289.5 234.5 1283C227 1276.5 219 1278.5 202.5 1276.5C186 1274.5 186 1276.5 159.5 1276.5C134.5 1274.5 125 1288.5 120.5 1290C116 1291.5 110 1305 106.5 1310.5C103 1316 101.5 1324 101 1327.5C100.5 1331 98.5 1336.5 93 1332C87.5 1327.5 77 1327 67.5 1323C58 1319 57.5 1323.5 51.5 1324C45.5 1324.5 43.5 1330 40.5 1332C37.5 1334 31 1332.5 26.5 1332C22 1331.5 19 1327 14.5 1317C10 1307 20 1292 22 1290C24 1288 30.5 1281 29.5 1275C28.5 1269 16 1271 13.4983 1270.5C10.9966 1270 4.49917 1266 3.49917 1262C2.49917 1258 9.9983 1236 13.4983 1231.5C16.9983 1227 14.4983 1218 13.4983 1214C12.4983 1210 9.4983 1207 9.9983 1202C10.4983 1197 12.9983 1199.5 17.9983 1197.5C22.9983 1195.5 31.4983 1201 39.4983 1202C47.4983 1203 56.4983 1200 60.9983 1197.5C65.4983 1195 70.4983 1190 75.4983 1188C80.4983 1186 88.9983 1189 96.4983 1186C103.998 1183 105.498 1172 108.498 1165.5C111.498 1159 112.498 1140.5 111.998 1134C111.498 1127.5 106.498 1128.5 98.9983 1122Z" fill="#7DB765" fill-opacity="0.2" stroke="white" stroke-width="5"/>
<path d="M486.5 1231C485.7 1223 478.167 1212.67 474.5 1208.5C472.834 1204 469.1 1194 467.5 1190C465.5 1185 459.5 1159.5 460 1152.5C460.5 1145.5 465.5 1141.5 469.5 1138.5C473.5 1135.5 507 1124.5 518 1123C529 1121.5 546.5 1112 555.5 1108.5C564.5 1105 576 1101.5 586 1098.5C596 1095.5 617.5 1094 626.5 1092.5C635.5 1091 648 1091 663.5 1089C679 1087 686 1090.5 690 1094C694 1097.5 692 1098 692 1115.5C692 1133 695 1152.5 696 1158.5C697 1164.5 705 1186 718 1199C731 1212 755.5 1236.5 763 1241C770.5 1245.5 781 1258 780.5 1263.5C780 1269 747.5 1275.5 734.5 1280.5C721.5 1285.5 709 1284.5 690 1285.5C671 1286.5 634.5 1274.5 623 1269.5C611.5 1264.5 585 1260 547.5 1263.5C510 1267 505.5 1261 502 1258C498.5 1255 487.5 1241 486.5 1231Z" fill="#7DB765" fill-opacity="0.2" stroke="white" stroke-width="5"/>
<path d="M692.5 1094C692.1 1089.6 702.333 1056.17 707.5 1040C703.833 1040.83 694.6 1043.5 687 1047.5C677.5 1052.5 657.5 1056.5 641 1060C624.5 1063.5 600.5 1058 585 1056.5C569.5 1055 545.5 1033 537.5 1024.5C529.5 1016 519 992 521 981C523 970 531 969 539 958.5C547 948 565 921.5 569 915.5C573 909.5 576 889.5 576 880.5C576 871.66 574.07 863.301 572.58 856.847L572.5 856.5C571 850 567 850 563 851C559 852 529.5 861 519 863C508.5 865 491.5 867 483.5 869C475.5 870.999 446 867.5 415.5 867C385 866.5 380.5 874 374 878C367.5 882 346 908.5 342 914C338 919.5 326.5 927 320 927C313.5 927 308 925 304.5 924.5C301 924 301 937.5 297.5 944C294 950.5 286.5 971 291 976C295.5 981 305.5 985.5 314 989.5C322.5 993.5 333.5 1003.5 334 1011.5C334.5 1019.5 319 1031.5 314 1034.5C309 1037.5 296.5 1042.5 286.5 1044C276.5 1045.5 275.5 1062.5 273 1069C270.5 1075.5 270 1103.5 270.5 1113.5C271 1123.5 273.5 1152 275.5 1160.5C277.5 1169 277.5 1181.5 277.5 1187C277.5 1192.5 278 1204.5 279.5 1206C281 1207.5 296 1208.5 302 1208.5C308 1208.5 329 1198 334 1194.5C339 1191 371 1191.5 380.5 1190C390 1188.5 407 1196.5 413 1198C419 1199.5 432 1215 435 1218.5C438 1222 445 1227 451 1226.5C457 1226 460 1218.5 461.5 1215C463.001 1211.5 471 1210 473.5 1208.5C476.001 1207 472.5 1199.5 467.5 1185.5C462.5 1171.5 460.5 1166.5 460 1155C459.5 1143.5 466 1143 471 1137C476 1131 521 1121.5 530.5 1118C540 1114.5 569 1109 583.5 1099.5C598 1090 671.5 1088.5 681 1090C690.5 1091.5 693 1099.5 692.5 1094Z" fill="#7DB765" fill-opacity="0.2" stroke="white" stroke-width="5"/>
<path d="M59.0015 750.5C59.8015 743.7 53.3348 728.667 50.0015 722C54.501 726.5 64.4 736.1 68 738.5C72.5 741.5 80 743.5 117 747C154 750.5 179.5 736 187.5 732C193.9 728.8 201.167 722 204 719C205.667 720.5 209.7 724.5 212.5 728.5C216 733.5 223 753.5 226 760.5C229 767.5 237 797.5 242 811.5C247 825.5 269 865.5 272.5 871.5C276 877.5 289 903 290.5 905C292 907 302 923.5 303 926.5C304 929.5 299 942.5 297 947.5C295 952.5 291 958 290 964.5C289 971 295.5 977 300 982C304.5 987 318 993.5 323 996.5C328 999.5 333 1006 332.5 1013.5C332 1021 325 1025.5 323 1029C321 1032.5 298 1042 288 1043.5C278 1045 275.5 1058 273 1061.5C270.5 1065 269.5 1093 269 1099.5C268.5 1106 271.5 1117 271 1129.5C270.5 1142 273 1146 274 1152.5C275 1159 274 1164 267.5 1158C261 1152 257.5 1141.5 254.5 1136C251.5 1130.5 239.5 1124.5 228 1119C216.5 1113.5 199.5 1113.5 191.5 1113C183.5 1112.5 168.5 1105 162.5 1104C156.5 1103 145.5 1096.5 132.5 1093C119.5 1089.5 107.5 1090 100.5 1088.5C93.5 1087 90.5 1092.5 87.5 1093C84.5 1093.5 82.5 1092 79.5 1086C76.5 1080 65 1050 61.501 1044C58.0019 1038 51 1036 45.001 1032C39.0019 1028 40.501 1025 39.001 1020C37.501 1015 41.001 1016 45.001 1011.5C49.001 1007 52.501 1010.5 61.501 1011.5C70.501 1012.5 82.001 1020 95.501 1020C129.001 1020 139.001 994.5 143.001 982C147.001 969.5 143.501 938.5 143.001 899C142.501 859.5 132.501 835.5 131.001 830.5C129.501 825.5 116.501 815.5 104.501 814C92.6038 812.513 66.4543 798.248 60.647 795.08L60.501 795C55.001 792 47.0015 783.5 45.0015 779C43.0015 774.5 48.0015 772 50.0015 769C52.0015 766 58.0015 759 59.0015 750.5Z" fill="#7DB765" fill-opacity="0.2" stroke="white" stroke-width="5"/>
<path d="M636 546C634 544.8 622.834 530.833 617.5 524C569 534 556 546.5 542 558.5C524.5 573.5 529.5 578 524 598.5C518.5 619 530 646.5 542 657.5C554 668.5 567 668.5 576.5 671C586 673.5 590 676 596 683C602 690 596.5 693 594.5 699.5C592.5 706 580 723.5 576.5 727.5C573 731.5 557 755 554 770.5C551 786 558.5 811.5 560 820C561.5 828.5 570.5 848 573 854.5C575.5 861 573.5 876.5 575 881.5C580.5 900.5 557.5 932.5 554 939C550.5 945.5 530.5 965 525 972C519.5 979 522 984 522 991.5C522 999 529 1005.5 530.5 1010.5C532 1015.5 544 1031 549 1036C554 1041 567 1050.5 573 1052.5C579 1054.5 608 1059.5 624 1060.5C640 1061.5 664.307 1055.25 679 1050.5C696 1045 703.834 1045.38 708 1040C710.541 1036.72 731.88 996.469 738.5 990C744.868 983.778 749.5 979 755.5 975.5C761.5 972 761 973 766 975.5C771 978 772 990 776 993C780 996 786 994.5 794 997C802 999.5 811 1008.5 820 1011C829 1013.5 831.5 1009 836 1005.5C840.5 1002 836 991.5 834.5 986.5C833 981.5 817 966 811 963C805 960 786.5 944 779.5 937C772.5 930 759.5 913.5 757 909C754.5 904.5 750 911 745.5 907.5C741 904 744 900.5 745.5 896C747 891.5 766 884 752.5 831.5C739 779 770 756 774.5 752.5C779 749 789.5 746.5 794.5 745.5C799.5 744.5 801 741.5 802 735.5C803 729.5 805 725.5 805.5 722C806 718.5 811.5 719.5 816 719.5C820.5 719.5 848.5 734 856 734C863.5 734 860.5 727.5 859.5 722C858.5 716.5 850.5 699.5 851.5 696C852.5 692.5 847.5 679.5 843.5 674.5C839.5 669.5 830.5 665.5 834.5 653C838.5 640.5 853.5 635.5 856 633.5C858.5 631.5 879.5 618 887 615.5C894.5 613 906.5 598.5 909 595C911.5 591.5 910 587 907.5 582.5C905 578 894 577.5 887 576.5C880 575.5 873 575.5 867 570.5C861 565.5 863 553.5 862 547C861.001 540.501 870.998 525.504 873 522.501L873 522.5C875 519.499 880 510.5 883.5 507C887 503.5 886 496.5 885.5 493C885 489.5 878 484 875 482C872 480 861 478 857 477C853 476 845.5 463.5 844.5 460C843.5 456.5 833.5 444.5 828.5 441C823.5 437.5 812 440 804.5 441C797 442 793 450.5 789 456.5C785 462.5 781 482.5 778 492C775 501.5 767.5 508 762 512C756.5 516 737 519 729 522.5C721 526 718 533.5 715.5 539C713 544.5 704 556.5 700 553.5C696 550.5 684 537 681 536.5C678 536 674 540.5 670 545C666 549.5 660 552 656 553.5C652 555 638.5 547.5 636 546Z" fill="#7DB765" fill-opacity="0.2" stroke="white" stroke-width="5"/>
<path d="M465.5 395C465.5 407 456.833 406.667 452.5 405C443.167 416.5 423.5 440.7 419.5 445.5C414.5 451.5 394 472.5 390 477.5C386 482.5 364.5 495.5 357 498.5C349.5 501.5 339.5 503.5 336 505C332.5 506.5 310.5 528 303.5 536C297.9 542.4 293.5 546 275.5 564C263.526 575.974 230.5 628.5 224 653.5C221.803 661.951 219.5 674 214.5 699C212.959 706.706 207.667 714.5 205.5 717.5C208.167 721.167 214.2 729.6 217 734C220.5 739.5 223 752 224 757C225 762 233 778.5 236 786C239 793.5 249 828 252.5 835C256 842 266.5 861.5 276.5 881C281.627 890.998 297.5 918 301 921.5C304.5 925 309 927.5 317.5 927C326 926.5 325.5 927 340 916.5C354.5 906 359.5 895 370 882C380.458 869.052 392 868.5 395 868C406.471 866.088 466.5 868 486 868C501.6 868 505 866.5 522.5 863.5C541 859.5 569.226 849.5 568 847.5C558.5 832 554 791 553.5 782C553 773 558.5 754.5 561 750.5C565.688 742.999 595.5 697.5 597 694.5C598.5 691.5 605.5 675.5 572 671.5C538.5 667.5 522 634 522 613.5C523 566.5 540 560.5 555 546.5C570 532.5 592 532 598.5 528.5C603.7 525.7 613.667 524 618 523.5C612.167 518.667 598.8 507.1 592 499.5C583.5 490 539 471.5 547.5 429C556 386.5 521 362.5 511 360.5C501 358.5 493.5 359.5 487 360.5C480.5 361.5 475.5 366 473 368C470.5 370 465.5 380 465.5 395Z" fill="#7DB765" fill-opacity="0.2"/>
<path d="M452.5 405L453.397 402.667L451.703 402.015L450.559 403.425L452.5 405ZM592 499.5L593.863 497.833L593.863 497.833L592 499.5ZM618 523.5L618.287 525.984C619.281 525.869 620.112 525.171 620.397 524.211C620.682 523.251 620.366 522.214 619.595 521.575L618 523.5ZM598.5 528.5L597.315 526.299L597.315 526.299L598.5 528.5ZM522 613.5L519.501 613.447L519.5 613.473V613.5H522ZM561 750.5L558.88 749.175L558.88 749.175L561 750.5ZM568 847.5L570.132 846.194L570.132 846.194L568 847.5ZM522.5 863.5L522.922 865.964L522.976 865.955L523.028 865.944L522.5 863.5ZM395 868L395.411 870.466L395.411 870.466L395 868ZM370 882L368.055 880.429L368.055 880.429L370 882ZM276.5 881L278.725 879.859L278.725 879.859L276.5 881ZM217 734L219.109 732.658L219.109 732.658L217 734ZM205.5 717.5L203.473 716.036L202.412 717.505L203.478 718.97L205.5 717.5ZM214.5 699L212.049 698.51L212.049 698.51L214.5 699ZM224 653.5L226.42 654.129L226.42 654.129L224 653.5ZM275.5 564L273.732 562.232L273.732 562.232L275.5 564ZM303.5 536L305.381 537.646L305.381 537.646L303.5 536ZM419.5 445.5L421.421 447.1L421.421 447.1L419.5 445.5ZM451.603 407.334C454.09 408.29 458.088 408.995 461.644 407.408C465.527 405.676 468 401.648 468 395H463C463 400.353 461.14 402.158 459.606 402.842C457.746 403.672 455.244 403.377 453.397 402.667L451.603 407.334ZM468 395C468 387.775 469.205 381.795 470.681 377.426C471.42 375.239 472.218 373.48 472.95 372.183C473.718 370.824 474.31 370.154 474.562 369.953L471.438 366.048C470.44 366.847 469.47 368.177 468.596 369.725C467.688 371.334 466.768 373.387 465.944 375.825C464.295 380.706 463 387.226 463 395H468ZM474.562 369.953C477.234 367.814 481.678 363.849 487.38 362.971L486.62 358.029C479.322 359.152 473.766 364.186 471.438 366.048L474.562 369.953ZM487.38 362.971C493.8 361.984 500.949 361.04 510.51 362.952L511.49 358.049C501.051 355.961 493.2 357.017 486.62 358.029L487.38 362.971ZM510.51 362.952C512.519 363.354 516.25 365.008 520.681 368.117C525.049 371.182 529.908 375.527 534.21 381.092C542.785 392.186 549.133 408.09 545.049 428.51L549.951 429.49C554.367 407.41 547.465 390.064 538.165 378.034C533.529 372.036 528.294 367.35 523.553 364.024C518.875 360.743 514.481 358.647 511.49 358.049L510.51 362.952ZM545.049 428.51C540.578 450.862 550.129 466.915 561.607 478.393C567.323 484.109 573.558 488.739 578.814 492.488C581.47 494.383 583.819 496.013 585.807 497.492C587.811 498.983 589.257 500.183 590.137 501.167L593.863 497.833C592.618 496.442 590.814 494.986 588.791 493.481C586.751 491.963 584.295 490.257 581.718 488.418C576.505 484.699 570.552 480.266 565.143 474.857C554.371 464.085 545.922 449.638 549.951 429.49L545.049 428.51ZM590.137 501.167C597.075 508.922 610.575 520.594 616.405 525.425L619.595 521.575C613.759 516.739 600.525 505.278 593.863 497.833L590.137 501.167ZM617.713 521.016C615.465 521.276 611.8 521.84 608.021 522.7C604.293 523.547 600.226 524.731 597.315 526.299L599.685 530.701C601.974 529.469 605.491 528.403 609.129 527.575C612.716 526.76 616.201 526.224 618.287 525.984L617.713 521.016ZM597.315 526.299C596.036 526.987 593.79 527.61 590.496 528.387C587.34 529.132 583.421 529.981 579.258 531.157C570.918 533.512 561.221 537.274 553.294 544.672L556.706 548.328C563.779 541.726 572.582 538.238 580.617 535.968C584.641 534.832 588.379 534.024 591.645 533.253C594.772 532.515 597.714 531.763 599.685 530.701L597.315 526.299ZM553.294 544.672C549.54 548.176 545.919 550.951 542.007 554.387C538.21 557.721 534.478 561.409 531.187 566.212C524.572 575.871 520.007 589.651 519.501 613.447L524.499 613.553C524.993 590.349 529.428 577.629 535.313 569.038C538.272 564.716 541.665 561.342 545.306 558.144C548.831 555.049 552.96 551.824 556.706 548.328L553.294 544.672ZM519.5 613.5C519.5 624.325 523.821 638.332 532.415 650.157C541.046 662.032 554.122 671.883 571.704 673.982L572.296 669.018C556.378 667.117 544.454 658.218 536.46 647.218C528.429 636.168 524.5 623.175 524.5 613.5H519.5ZM571.704 673.982C588.218 675.954 593.672 680.776 595.355 684.423C597.085 688.171 595.473 691.964 594.764 693.382L599.236 695.618C600.027 694.036 602.665 688.329 599.895 682.327C597.078 676.224 589.282 671.046 572.296 669.018L571.704 673.982ZM594.764 693.382C594.644 693.622 594.096 694.535 593.096 696.133C592.135 697.668 590.835 699.712 589.297 702.112C586.222 706.91 582.211 713.108 578.098 719.452C569.885 732.118 561.239 745.401 558.88 749.175L563.12 751.825C565.449 748.098 574.053 734.881 582.293 722.172C586.407 715.828 590.423 709.62 593.506 704.81C595.047 702.405 596.359 700.344 597.334 698.787C598.269 697.293 598.981 696.128 599.236 695.618L594.764 693.382ZM558.88 749.175C558.096 750.43 557.207 752.567 556.345 755.012C555.46 757.524 554.534 760.561 553.705 763.746C552.073 770.024 550.731 777.223 551.004 782.139L555.996 781.861C555.769 777.777 556.927 771.226 558.545 765.004C559.341 761.939 560.228 759.038 561.061 756.675C561.918 754.245 562.654 752.57 563.12 751.825L558.88 749.175ZM551.004 782.139C551.26 786.75 552.523 799.35 554.914 812.752C556.11 819.458 557.597 826.407 559.394 832.681C561.18 838.918 563.317 844.643 565.868 848.806L570.132 846.194C567.933 842.607 565.945 837.395 564.2 831.304C562.466 825.249 561.015 818.479 559.836 811.873C557.477 798.65 556.24 786.25 555.996 781.861L551.004 782.139ZM565.868 848.806C565.084 847.526 565.904 846.452 565.925 846.426C566.021 846.302 566.027 846.341 565.744 846.535C565.229 846.887 564.307 847.387 562.958 848.013C560.299 849.246 556.393 850.778 551.816 852.392C542.669 855.618 531.092 859.085 521.972 861.056L523.028 865.944C532.408 863.915 544.194 860.382 553.479 857.108C558.117 855.472 562.194 853.879 565.061 852.549C566.474 851.894 567.701 851.254 568.568 850.661C568.975 850.382 569.48 849.996 569.864 849.505C570.172 849.11 571.07 847.724 570.132 846.194L565.868 848.806ZM522.078 861.036C504.425 864.062 501.325 865.5 486 865.5V870.5C501.875 870.5 505.575 868.938 522.922 865.964L522.078 861.036ZM486 865.5C476.265 865.5 456.459 865.023 437.521 864.783C428.076 864.664 418.863 864.604 411.286 864.694C403.789 864.783 397.683 865.018 394.589 865.534L395.411 870.466C398.053 870.026 403.752 869.783 411.346 869.693C418.86 869.604 428.024 869.663 437.458 869.783C456.277 870.021 476.235 870.5 486 870.5V865.5ZM394.589 865.534C393.275 865.753 389.261 866.062 384.372 868.01C379.434 869.976 373.573 873.598 368.055 880.429L371.945 883.571C376.885 877.455 382.023 874.327 386.222 872.655C390.468 870.964 393.725 870.747 395.411 870.466L394.589 865.534ZM368.055 880.429C365.384 883.736 363.07 886.908 360.891 889.94C358.702 892.987 356.674 895.861 354.518 898.663C350.242 904.222 345.534 909.406 338.534 914.475L341.466 918.525C348.966 913.094 354.008 907.528 358.482 901.712C360.701 898.826 362.798 895.857 364.952 892.857C367.118 889.842 369.366 886.764 371.945 883.571L368.055 880.429ZM338.534 914.475C331.172 919.806 327.926 922.105 325.465 923.224C323.23 924.24 321.763 924.245 317.353 924.504L317.647 929.496C321.737 929.255 324.27 929.26 327.535 927.776C330.574 926.395 334.328 923.694 341.466 918.525L338.534 914.475ZM317.353 924.504C313.376 924.738 310.492 924.262 308.265 923.414C306.05 922.57 304.338 921.302 302.768 919.732L299.232 923.268C301.162 925.198 303.45 926.93 306.485 928.086C309.508 929.238 313.124 929.762 317.647 929.496L317.353 924.504ZM302.768 919.732C302.12 919.084 300.622 916.995 298.514 913.742C296.476 910.597 294.021 906.609 291.506 902.404C286.469 893.982 281.251 884.786 278.725 879.859L274.275 882.141C276.876 887.212 282.159 896.517 287.215 904.97C289.746 909.203 292.235 913.246 294.318 916.461C296.331 919.567 298.13 922.166 299.232 923.268L302.768 919.732ZM278.725 879.859C268.666 860.244 258.246 840.902 254.736 833.882L250.264 836.118C253.754 843.098 264.334 862.756 274.275 882.141L278.725 879.859ZM254.736 833.882C253.95 832.311 252.722 829.008 251.234 824.639C249.766 820.33 248.101 815.149 246.445 809.931C243.162 799.587 239.866 788.934 238.321 785.072L233.679 786.928C235.134 790.566 238.338 800.913 241.68 811.444C243.336 816.664 245.015 821.889 246.501 826.251C247.966 830.554 249.3 834.189 250.264 836.118L254.736 833.882ZM238.321 785.072C236.801 781.27 234.008 775.174 231.539 769.556C230.292 766.72 229.119 763.988 228.199 761.665C227.257 759.286 226.652 757.511 226.451 756.51L221.549 757.49C221.848 758.989 222.618 761.151 223.551 763.506C224.506 765.918 225.708 768.718 226.961 771.569C229.492 777.326 232.199 783.23 233.679 786.928L238.321 785.072ZM226.451 756.51C225.952 754.012 225.063 749.565 223.853 745.041C222.665 740.603 221.086 735.765 219.109 732.658L214.891 735.342C216.414 737.735 217.835 741.897 219.022 746.334C220.187 750.685 221.048 754.988 221.549 757.49L226.451 756.51ZM219.109 732.658C216.261 728.182 210.182 719.687 207.522 716.03L203.478 718.97C206.151 722.646 212.139 731.018 214.891 735.342L219.109 732.658ZM207.527 718.964C209.696 715.96 215.294 707.779 216.951 699.49L212.049 698.51C210.624 705.633 205.637 713.04 203.473 716.036L207.527 718.964ZM216.951 699.49C221.964 674.428 224.246 662.49 226.42 654.129L221.58 652.871C219.36 661.413 217.036 673.572 212.049 698.51L216.951 699.49ZM226.42 654.129C229.572 642.006 239.282 622.893 249.846 605.144C260.414 587.387 271.525 571.51 277.268 565.768L273.732 562.232C267.501 568.464 256.113 584.837 245.549 602.587C234.981 620.344 224.928 639.994 221.58 652.871L226.42 654.129ZM277.268 565.768C295.125 547.911 299.714 544.124 305.381 537.646L301.619 534.354C296.086 540.676 291.875 544.089 273.732 562.232L277.268 565.768ZM305.381 537.646C308.809 533.729 315.997 526.414 322.797 519.863C326.19 516.595 329.458 513.544 332.084 511.226C333.399 510.065 334.534 509.105 335.431 508.4C335.88 508.047 336.251 507.772 336.542 507.574C336.86 507.357 336.992 507.295 336.985 507.298L335.015 502.702C334.23 503.038 333.259 503.747 332.341 504.469C331.338 505.258 330.124 506.287 328.775 507.477C326.074 509.862 322.748 512.968 319.328 516.262C312.503 522.836 305.191 530.271 301.619 534.354L305.381 537.646ZM336.985 507.298C338.528 506.637 341.643 505.825 345.661 504.724C349.532 503.662 354.032 502.38 357.928 500.821L356.072 496.179C352.468 497.62 348.218 498.838 344.339 499.901C340.607 500.925 336.972 501.863 335.015 502.702L336.985 507.298ZM357.928 500.821C361.899 499.233 369.308 495.131 376.136 490.871C379.575 488.725 382.926 486.503 385.686 484.488C388.369 482.527 390.719 480.603 391.952 479.062L388.048 475.938C387.281 476.897 385.443 478.473 382.736 480.45C380.105 482.372 376.862 484.525 373.489 486.629C366.692 490.869 359.601 494.767 356.072 496.179L357.928 500.821ZM391.952 479.062C393.869 476.665 399.889 470.273 406.193 463.591C412.404 457.007 418.857 450.177 421.421 447.1L417.579 443.9C415.143 446.823 408.846 453.493 402.557 460.159C396.361 466.727 390.131 473.335 388.048 475.938L391.952 479.062ZM421.421 447.1C425.434 442.284 445.116 418.066 454.441 406.576L450.559 403.425C441.218 414.934 421.566 439.116 417.579 443.9L421.421 447.1Z" fill="white"/>
<path d="M156.501 475.5C156.101 467.5 159.334 451.5 161.001 444.5C174.667 442.333 203.3 437.8 208.5 437C215 436 216.5 434.5 222.5 433C228.5 431.5 235.5 430.5 246 430.5C256.5 430.5 250 429.5 269 433.5C288 437.5 294.5 448 296.5 451C298.5 454 302.5 464 303.5 466C304.5 468 308.5 479 311 482C313.5 485 316.5 492.5 321.5 495.5C325.5 497.9 333.167 500.833 336.5 502C244.5 581 226 653 222 661.5C218 670 216.5 684.5 214 695C211.5 705.5 206.5 714.5 203 720C199.5 725.5 179 741.5 143 747.5C107 753.5 75 741 72.5 740C70 739 54.5 730.5 51.5 725.5C48.5 720.5 49 713.5 50 707.5C51 701.5 56.5 689.5 56 680C55.5 670.5 42.5 661.5 37 655.5C31.5 649.5 16.4998 635 13.4998 629.5C10.4998 624 10.4998 617 10.9998 613.5C11.4998 610 20.4998 600.5 25.4998 598.5C30.4998 596.5 57.9998 584 65.4998 579.5C72.9998 575 80.9998 563 85.4998 558.5C89.9998 554 95.9998 551 99.9998 550C104 549 104 551 107 553.5C110 556 111.5 559.5 114 563C116.5 566.5 118.115 564.824 121 564C124.5 563 136.5 554.5 143 547.5C149.5 540.5 167.5 524.5 163.5 517C159.5 509.5 157.001 485.5 156.501 475.5Z" fill="#7DB765" fill-opacity="0.2" stroke="white" stroke-width="5"/>
<path d="M153.002 372.999C159.002 388.599 160.835 427.165 161.002 444.499C176.668 442.166 208.7 437.3 211.5 436.5C255.5 421 284.5 438 291 444C297.5 450 305.5 472.5 309.5 480C313.5 487.5 320 497 333 500.5C346 504 348 502 364 495C380.5 493 449.5 412 451 408C452.5 404 452 402 449.5 397.5C447 393 445 386.5 442 381C439 375.5 437.5 381 432.5 381C427.5 381 430.5 377 431 373.5C431.5 370 435 364.5 437.5 358.5C440 352.5 439 344 437.5 338.5C436 333 433 335 426.5 333C420 331 417.5 335 411.5 338.5C405.5 342 400.5 341 395 333C389.5 325 396.5 319.5 403 306C409.5 292.5 408 294.5 406.5 283C405 271.5 396.5 272.5 387.5 265.5C378.5 258.5 341.5 261.5 369.5 231.5C397.5 201.5 364 183.5 360.5 180.5C357.7 178.1 360.5 174 356.5 162C352.833 152 338.2 132.2 309 133C279.8 133.8 242.5 93.6667 227.5 73.5C222.333 68.1667 209.2 59.6 198 68C186.8 76.4 171.669 62.4991 165.503 54.4986C145 -5.99961 130.999 4.00159 87.5001 4.00081C28.4989 4.00062 52.0021 67.4987 53.5021 75.4987C55.0021 83.4987 80.0021 150.999 97.0021 201.999C114.002 252.999 145.502 353.499 153.002 372.999Z" fill="#7DB765" fill-opacity="0.2" stroke="white" stroke-width="5"/>
<path d="M184.077 823.906L211.348 823.21L211.76 839.365L208.241 839.455L207.929 827.219L200.172 827.417L200.337 833.895C200.394 836.134 199.617 838.101 198.007 839.796C196.396 841.491 194.471 842.367 192.232 842.424L191.992 842.43C189.566 842.492 187.648 841.554 186.238 839.616C185.021 837.913 184.38 835.796 184.316 833.263L184.077 823.906ZM196.653 827.507L187.696 827.735L187.82 832.614C187.885 835.146 188.622 836.861 190.032 837.759C190.683 838.169 191.435 838.363 192.288 838.341C193.887 838.301 195.071 837.657 195.84 836.41C196.506 835.353 196.818 833.985 196.775 832.305L196.653 827.507ZM212.38 857.37L185.261 870.305L185.159 866.307L193.142 862.422L192.846 850.826L184.681 847.593L184.579 843.594L212.31 854.65L212.38 857.37ZM206.345 856.083L196.404 852.255L196.62 860.733L206.345 856.083ZM213.205 895.994L185.934 896.69L185.834 892.771L197.75 892.467L197.36 877.192L185.444 877.496L185.344 873.578L212.615 872.882L212.715 876.8L200.879 877.102L201.269 892.377L213.105 892.076L213.205 895.994ZM186.097 903.099L213.369 902.403L213.72 916.159L210.201 916.249L209.95 906.412L186.197 907.018L186.097 903.099ZM214.636 952.086L211.117 952.176L210.877 942.739L187.124 943.345L187.024 939.426L210.777 938.82L210.536 929.383L214.055 929.293L214.636 952.086ZM215.188 967.451L188.069 980.387L187.967 976.388L195.951 972.503L195.655 960.907L187.49 957.674L187.388 953.676L215.119 964.732L215.188 967.451ZM209.153 966.164L199.213 962.337L199.429 970.814L209.153 966.164ZM201.798 982.11C205.903 982.006 209.312 983.346 212.024 986.131C214.68 988.837 216.061 992.257 216.167 996.389C216.274 1000.6 215.097 1004.11 212.634 1006.92C210.093 1009.79 206.73 1011.27 202.545 1011.38C198.359 1011.49 194.925 1010.17 192.241 1007.44C189.584 1004.71 188.201 1001.24 188.094 997.025C187.988 992.893 189.219 989.394 191.787 986.527C194.356 983.687 197.692 982.215 201.798 982.11ZM201.9 986.109C198.887 986.186 196.421 987.263 194.5 989.339C192.606 991.441 191.698 993.999 191.775 997.011C191.852 1000.05 192.89 1002.56 194.888 1004.53C196.885 1006.51 199.404 1007.46 202.443 1007.38C205.482 1007.3 207.948 1006.23 209.843 1004.15C211.737 1002.08 212.645 999.519 212.568 996.48C212.49 993.415 211.452 990.894 209.454 988.917C207.484 986.967 204.966 986.031 201.9 986.109Z" fill="white"/>
<path d="M97.24 621.56V625.8C94.0933 623.88 90.9733 622.92 87.88 622.92C84.7867 622.92 82.2 623.893 80.12 625.84C78.04 627.787 77 630.307 77 633.4C77 636.547 78.0667 639.067 80.2 640.96C82.2533 642.8 84.8667 643.72 88.04 643.72C91.24 643.72 94.4133 642.707 97.56 640.68V644.92C94.52 646.573 91.2133 647.4 87.64 647.4C82.9467 647.4 79.2133 645.84 76.44 642.72C74.0933 640.08 72.92 637.08 72.92 633.72C72.92 629.453 74.3333 625.987 77.16 623.32C80.0133 620.653 83.5867 619.32 87.88 619.32C90.52 619.32 93.64 620.067 97.24 621.56ZM115.011 619.56L127.251 647H123.251L119.571 638.92H107.971L104.531 647H100.531L112.291 619.56H115.011ZM113.571 625.56L109.491 635.4H117.971L113.571 625.56ZM144.844 619.72H148.764L140.924 632.6C141.244 632.6 141.671 632.813 142.204 633.24L143.004 633.88C143.698 634.573 144.484 635.667 145.364 637.16L147.964 641.56L149.524 644L151.644 647H147.004L143.404 641.4C141.671 638.68 140.724 637.24 140.564 637.08C139.418 635.8 137.938 635.16 136.124 635.16H134.524V647H130.604V619.72H134.524V631.64H137.004L137.484 631.72L144.844 619.72ZM179.809 619.72L168.929 632.84L180.529 647H175.809L166.529 635.72L157.169 647H152.369L164.129 632.84L153.249 619.72H157.969L166.529 630.12L175.089 619.72H179.809ZM205.551 619.72L195.391 647.64C194.804 649.24 193.737 650.787 192.191 652.28C191.604 652.84 190.764 653.187 189.671 653.32C189.244 653.373 188.857 653.4 188.511 653.4C186.804 653.4 185.497 652.947 184.591 652.04V647.72C184.964 648.253 185.484 648.707 186.151 649.08C186.817 649.453 187.471 649.64 188.111 649.64C189.657 649.64 190.644 649.16 191.071 648.2L191.591 647.36C191.937 646.8 192.217 646.227 192.431 645.64L181.391 619.72H185.311L194.271 641.16L201.711 619.72H205.551Z" fill="white"/>
<path d="M185.4 297.72V325H181.48V303.72L173 314.28H172.36L163.96 303.72L163.88 325H159.96V297.72H163.64L172.68 308.92L181.72 297.72H185.4ZM203.55 297.56L215.79 325H211.79L208.11 316.92H196.51L193.07 325H189.07L200.83 297.56H203.55ZM202.11 303.56L198.03 313.4H206.51L202.11 303.56ZM231.623 291H235.823L231.223 296.8H228.623L231.623 291ZM219.063 297.72H222.743V319.16L240.823 297.72H244.343V325H240.503V303.48L222.423 325H219.063V297.72ZM276.587 297.72H280.507L272.667 310.6C272.987 310.6 273.413 310.813 273.947 311.24L274.747 311.88C275.44 312.573 276.227 313.667 277.107 315.16L279.707 319.56L281.267 322L283.387 325H278.747L275.147 319.4C273.413 316.68 272.467 315.24 272.307 315.08C271.16 313.8 269.68 313.16 267.867 313.16H266.267V325H262.347V297.72H266.267V309.64H268.747L269.227 309.72L276.587 297.72ZM298.511 297.56L310.751 325H306.751L303.071 316.92H291.471L288.031 325H284.031L295.791 297.56H298.511ZM297.071 303.56L292.991 313.4H301.471L297.071 303.56ZM312.824 311.32C312.824 307.213 314.251 303.84 317.104 301.2C319.878 298.613 323.331 297.32 327.464 297.32C331.678 297.32 335.158 298.587 337.904 301.12C340.704 303.733 342.104 307.133 342.104 311.32C342.104 315.507 340.704 318.907 337.904 321.52C335.104 324.107 331.598 325.4 327.384 325.4C323.251 325.4 319.784 324.08 316.984 321.44C314.211 318.8 312.824 315.427 312.824 311.32ZM316.824 311.32C316.824 314.333 317.838 316.827 319.864 318.8C321.918 320.747 324.451 321.72 327.464 321.72C330.504 321.72 333.038 320.747 335.064 318.8C337.091 316.853 338.104 314.36 338.104 311.32C338.104 308.28 337.091 305.787 335.064 303.84C333.038 301.893 330.504 300.92 327.464 300.92C324.398 300.92 321.851 301.893 319.824 303.84C317.824 305.76 316.824 308.253 316.824 311.32Z" fill="white"/>
<path d="M248.52 689.72V693.24H239.08V717H235.16V693.24H225.72V689.72H248.52ZM276.934 689.72L266.054 702.84L277.654 717H272.934L263.654 705.72L254.294 717H249.494L261.254 702.84L250.374 689.72H255.094L263.654 700.12L272.214 689.72H276.934ZM296.996 689.72V693.24H285.476V701.48H296.596V705H285.476V713.48H297.396V717H281.556V689.72H296.996ZM326.121 689.72V717H322.201V693.24H307.161V717H303.401V689.72H326.121ZM347.712 689.72H351.632L343.792 702.6C344.112 702.6 344.538 702.813 345.072 703.24L345.872 703.88C346.565 704.573 347.352 705.667 348.232 707.16L350.832 711.56L352.392 714L354.512 717H349.872L346.272 711.4C344.538 708.68 343.592 707.24 343.432 707.08C342.285 705.8 340.805 705.16 338.992 705.16H337.392V717H333.472V689.72H337.392V701.64H339.872L340.352 701.72L347.712 689.72ZM369.636 689.56L381.876 717H377.876L374.196 708.92H362.596L359.156 717H355.156L366.916 689.56H369.636ZM368.196 695.56L364.116 705.4H372.596L368.196 695.56ZM408.349 691.56V695.8C405.203 693.88 402.083 692.92 398.989 692.92C395.896 692.92 393.309 693.893 391.229 695.84C389.149 697.787 388.109 700.307 388.109 703.4C388.109 706.547 389.176 709.067 391.309 710.96C393.363 712.8 395.976 713.72 399.149 713.72C402.349 713.72 405.523 712.707 408.669 710.68V714.92C405.629 716.573 402.323 717.4 398.749 717.4C394.056 717.4 390.323 715.84 387.549 712.72C385.203 710.08 384.029 707.08 384.029 703.72C384.029 699.453 385.443 695.987 388.269 693.32C391.123 690.653 394.696 689.32 398.989 689.32C401.629 689.32 404.749 690.067 408.349 691.56ZM437.881 691.56V695.8C434.734 693.88 431.614 692.92 428.521 692.92C425.427 692.92 422.841 693.893 420.761 695.84C418.681 697.787 417.641 700.307 417.641 703.4C417.641 706.547 418.707 709.067 420.841 710.96C422.894 712.8 425.507 713.72 428.681 713.72C431.881 713.72 435.054 712.707 438.201 710.68V714.92C435.161 716.573 431.854 717.4 428.281 717.4C423.587 717.4 419.854 715.84 417.081 712.72C414.734 710.08 413.561 707.08 413.561 703.72C413.561 699.453 414.974 695.987 417.801 693.32C420.654 690.653 424.227 689.32 428.521 689.32C431.161 689.32 434.281 690.067 437.881 691.56ZM455.652 689.56L467.892 717H463.892L460.212 708.92H448.612L445.172 717H441.172L452.932 689.56H455.652ZM454.212 695.56L450.132 705.4H458.612L454.212 695.56ZM491.645 689.72V693.24H482.205V717H478.285V693.24H468.845V689.72H491.645ZM497.579 689.72H506.139C508.726 689.72 510.792 690.373 512.339 691.68C513.966 693.067 514.779 695.027 514.779 697.56C514.779 700.147 513.859 702.093 512.019 703.4C510.392 704.573 508.246 705.16 505.579 705.16H501.499V717H497.579V689.72ZM501.499 693.24V701.64H505.979C507.419 701.64 508.579 701.28 509.459 700.56C510.339 699.84 510.779 698.787 510.779 697.4C510.779 694.627 509.232 693.24 506.139 693.24H501.499ZM519.993 689.72H523.673V711.16L541.753 689.72H545.273V717H541.433V695.48L523.353 717H519.993V689.72Z" fill="white"/>
<path d="M643.16 669.72V697H639.24V673.24H624.2V697H620.44V669.72H643.16ZM661.871 669.56L674.111 697H670.111L666.431 688.92H654.831L651.391 697H647.391L659.151 669.56H661.871ZM660.431 675.56L656.351 685.4H664.831L660.431 675.56ZM691.704 669.72H695.624L687.784 682.6C688.104 682.6 688.53 682.813 689.064 683.24L689.864 683.88C690.557 684.573 691.344 685.667 692.224 687.16L694.824 691.56L696.384 694L698.504 697H693.864L690.264 691.4C688.53 688.68 687.584 687.24 687.424 687.08C686.277 685.8 684.797 685.16 682.984 685.16H681.384V697H677.464V669.72H681.384V681.64H683.864L684.344 681.72L691.704 669.72ZM713.628 669.56L725.788 697H721.388L712.188 675.56L703.708 697H699.708L710.908 669.56H713.628ZM729.231 683.32C729.231 679.213 730.657 675.84 733.511 673.2C736.284 670.613 739.737 669.32 743.871 669.32C748.084 669.32 751.564 670.587 754.311 673.12C757.111 675.733 758.511 679.133 758.511 683.32C758.511 687.507 757.111 690.907 754.311 693.52C751.511 696.107 748.004 697.4 743.791 697.4C739.657 697.4 736.191 696.08 733.391 693.44C730.617 690.8 729.231 687.427 729.231 683.32ZM733.231 683.32C733.231 686.333 734.244 688.827 736.271 690.8C738.324 692.747 740.857 693.72 743.871 693.72C746.911 693.72 749.444 692.747 751.471 690.8C753.497 688.853 754.511 686.36 754.511 683.32C754.511 680.28 753.497 677.787 751.471 675.84C749.444 673.893 746.911 672.92 743.871 672.92C740.804 672.92 738.257 673.893 736.231 675.84C734.231 677.76 733.231 680.253 733.231 683.32ZM778.579 669.72H782.499L774.659 682.6C774.979 682.6 775.405 682.813 775.939 683.24L776.739 683.88C777.432 684.573 778.219 685.667 779.099 687.16L781.699 691.56L783.259 694L785.379 697H780.739L777.139 691.4C775.405 688.68 774.459 687.24 774.299 687.08C773.152 685.8 771.672 685.16 769.859 685.16H768.259V697H764.339V669.72H768.259V681.64H770.739L771.219 681.72L778.579 669.72Z" fill="white"/>
<path d="M309.08 1089.32H318.28V1065.72H322.28V1093H292.04V1065.72H295.96V1089.32H305.08V1065.72H309.08V1089.32ZM330.446 1065.72H339.006C341.593 1065.72 343.66 1066.37 345.206 1067.68C346.833 1069.07 347.646 1071.03 347.646 1073.56C347.646 1076.15 346.726 1078.09 344.886 1079.4C343.26 1080.57 341.113 1081.16 338.446 1081.16H334.366V1093H330.446V1065.72ZM334.366 1069.24V1077.64H338.846C340.286 1077.64 341.446 1077.28 342.326 1076.56C343.206 1075.84 343.646 1074.79 343.646 1073.4C343.646 1070.63 342.1 1069.24 339.006 1069.24H334.366ZM352.86 1065.72H356.54V1087.16L374.62 1065.72H378.14V1093H374.3V1071.48L356.22 1093H352.86V1065.72ZM419.732 1067.56V1071.8C416.586 1069.88 413.466 1068.92 410.372 1068.92C407.279 1068.92 404.692 1069.89 402.612 1071.84C400.532 1073.79 399.492 1076.31 399.492 1079.4C399.492 1082.55 400.559 1085.07 402.692 1086.96C404.746 1088.8 407.359 1089.72 410.532 1089.72C413.732 1089.72 416.906 1088.71 420.052 1086.68V1090.92C417.012 1092.57 413.706 1093.4 410.132 1093.4C405.439 1093.4 401.706 1091.84 398.932 1088.72C396.586 1086.08 395.412 1083.08 395.412 1079.72C395.412 1075.45 396.826 1071.99 399.652 1069.32C402.506 1066.65 406.079 1065.32 410.372 1065.32C413.012 1065.32 416.132 1066.07 419.732 1067.56ZM447.183 1065.72L437.023 1093.64C436.437 1095.24 435.37 1096.79 433.823 1098.28C433.237 1098.84 432.397 1099.19 431.303 1099.32C430.877 1099.37 430.49 1099.4 430.143 1099.4C428.437 1099.4 427.13 1098.95 426.223 1098.04V1093.72C426.597 1094.25 427.117 1094.71 427.783 1095.08C428.45 1095.45 429.103 1095.64 429.743 1095.64C431.29 1095.64 432.277 1095.16 432.703 1094.2L433.223 1093.36C433.57 1092.8 433.85 1092.23 434.063 1091.64L423.023 1065.72H426.943L435.903 1087.16L443.343 1065.72H447.183ZM473.988 1065.72V1093H470.068V1081.08H454.788V1093H450.868V1065.72H454.788V1077.56H470.068V1065.72H473.988ZM500.879 1065.72V1069.24H491.439V1093H487.519V1069.24H478.079V1065.72H500.879ZM503.613 1079.32C503.613 1075.21 505.04 1071.84 507.893 1069.2C510.667 1066.61 514.12 1065.32 518.253 1065.32C522.467 1065.32 525.947 1066.59 528.693 1069.12C531.493 1071.73 532.893 1075.13 532.893 1079.32C532.893 1083.51 531.493 1086.91 528.693 1089.52C525.893 1092.11 522.387 1093.4 518.173 1093.4C514.04 1093.4 510.573 1092.08 507.773 1089.44C505 1086.8 503.613 1083.43 503.613 1079.32ZM507.613 1079.32C507.613 1082.33 508.627 1084.83 510.653 1086.8C512.707 1088.75 515.24 1089.72 518.253 1089.72C521.293 1089.72 523.827 1088.75 525.853 1086.8C527.88 1084.85 528.893 1082.36 528.893 1079.32C528.893 1076.28 527.88 1073.79 525.853 1071.84C523.827 1069.89 521.293 1068.92 518.253 1068.92C515.187 1068.92 512.64 1069.89 510.613 1071.84C508.613 1073.76 507.613 1076.25 507.613 1079.32ZM561.762 1065.72V1093H557.842V1081.08H542.562V1093H538.642V1065.72H542.562V1077.56H557.842V1065.72H561.762Z" fill="white"/>
<path d="M528.36 1175.72H532.28L524.44 1188.6C524.76 1188.6 525.187 1188.81 525.72 1189.24L526.52 1189.88C527.213 1190.57 528 1191.67 528.88 1193.16L531.48 1197.56L533.04 1200L535.16 1203H530.52L526.92 1197.4C525.187 1194.68 524.24 1193.24 524.08 1193.08C522.933 1191.8 521.453 1191.16 519.64 1191.16H518.04V1203H514.12V1175.72H518.04V1187.64H520.52L521 1187.72L528.36 1175.72ZM537.645 1189.32C537.645 1185.21 539.071 1181.84 541.925 1179.2C544.698 1176.61 548.151 1175.32 552.285 1175.32C556.498 1175.32 559.978 1176.59 562.725 1179.12C565.525 1181.73 566.925 1185.13 566.925 1189.32C566.925 1193.51 565.525 1196.91 562.725 1199.52C559.925 1202.11 556.418 1203.4 552.205 1203.4C548.071 1203.4 544.605 1202.08 541.805 1199.44C539.031 1196.8 537.645 1193.43 537.645 1189.32ZM541.645 1189.32C541.645 1192.33 542.658 1194.83 544.685 1196.8C546.738 1198.75 549.271 1199.72 552.285 1199.72C555.325 1199.72 557.858 1198.75 559.885 1196.8C561.911 1194.85 562.925 1192.36 562.925 1189.32C562.925 1186.28 561.911 1183.79 559.885 1181.84C557.858 1179.89 555.325 1178.92 552.285 1178.92C549.218 1178.92 546.671 1179.89 544.645 1181.84C542.645 1183.76 541.645 1186.25 541.645 1189.32ZM598.594 1175.72H602.514L594.674 1188.6C594.994 1188.6 595.421 1188.81 595.954 1189.24L596.754 1189.88C597.448 1190.57 598.234 1191.67 599.114 1193.16L601.714 1197.56L603.274 1200L605.394 1203H600.754L597.154 1197.4C595.421 1194.68 594.474 1193.24 594.314 1193.08C593.168 1191.8 591.688 1191.16 589.874 1191.16H588.274V1203H584.354V1175.72H588.274V1187.64H590.754L591.234 1187.72L598.594 1175.72ZM624.519 1175.72V1179.24H612.999V1187.48H624.119V1191H612.999V1199.48H624.919V1203H609.079V1175.72H624.519ZM629.324 1189.32C629.324 1185.21 630.751 1181.84 633.604 1179.2C636.378 1176.61 639.831 1175.32 643.964 1175.32C648.178 1175.32 651.658 1176.59 654.404 1179.12C657.204 1181.73 658.604 1185.13 658.604 1189.32C658.604 1193.51 657.204 1196.91 654.404 1199.52C651.604 1202.11 648.098 1203.4 643.884 1203.4C639.751 1203.4 636.284 1202.08 633.484 1199.44C630.711 1196.8 629.324 1193.43 629.324 1189.32ZM633.324 1189.32C633.324 1192.33 634.338 1194.83 636.364 1196.8C638.418 1198.75 640.951 1199.72 643.964 1199.72C647.004 1199.72 649.538 1198.75 651.564 1196.8C653.591 1194.85 654.604 1192.36 654.604 1189.32C654.604 1186.28 653.591 1183.79 651.564 1181.84C649.538 1179.89 647.004 1178.92 643.964 1178.92C640.898 1178.92 638.351 1179.89 636.324 1181.84C634.324 1183.76 633.324 1186.25 633.324 1189.32Z" fill="white"/>
<path d="M88.36 1215.72H92.28L84.44 1228.6C84.76 1228.6 85.1867 1228.81 85.72 1229.24L86.52 1229.88C87.2133 1230.57 88 1231.67 88.88 1233.16L91.48 1237.56L93.04 1240L95.16 1243H90.52L86.92 1237.4C85.1867 1234.68 84.24 1233.24 84.08 1233.08C82.9333 1231.8 81.4533 1231.16 79.64 1231.16H78.04V1243H74.12V1215.72H78.04V1227.64H80.52L81 1227.72L88.36 1215.72ZM110.285 1215.56L122.525 1243H118.525L114.845 1234.92H103.245L99.8047 1243H95.8047L107.565 1215.56H110.285ZM108.845 1221.56L104.765 1231.4H113.245L108.845 1221.56ZM151.158 1215.72V1243H147.238V1221.72L138.758 1232.28H138.118L129.718 1221.72L129.638 1243H125.718V1215.72H129.398L138.438 1226.92L147.478 1215.72H151.158ZM169.308 1215.56L181.548 1243H177.548L173.868 1234.92H162.268L158.828 1243H154.828L166.588 1215.56H169.308ZM167.868 1221.56L163.788 1231.4H172.268L167.868 1221.56ZM196.261 1215.56L208.421 1243H204.021L194.821 1221.56L186.341 1243H182.341L193.541 1215.56H196.261ZM224.503 1215.56L236.743 1243H232.743L229.063 1234.92H217.463L214.023 1243H210.023L221.783 1215.56H224.503ZM223.063 1221.56L218.983 1231.4H227.463L223.063 1221.56Z" fill="white"/>
<path d="M359.36 1347.72H363.28L355.44 1360.6C355.76 1360.6 356.187 1360.81 356.72 1361.24L357.52 1361.88C358.213 1362.57 359 1363.67 359.88 1365.16L362.48 1369.56L364.04 1372L366.16 1375H361.52L357.92 1369.4C356.187 1366.68 355.24 1365.24 355.08 1365.08C353.933 1363.8 352.453 1363.16 350.64 1363.16H349.04V1375H345.12V1347.72H349.04V1359.64H351.52L352 1359.72L359.36 1347.72ZM381.285 1347.56L393.525 1375H389.525L385.845 1366.92H374.245L370.805 1375H366.805L378.565 1347.56H381.285ZM379.845 1353.56L375.765 1363.4H384.245L379.845 1353.56ZM417.278 1347.72V1351.24H407.838V1375H403.918V1351.24H394.478V1347.72H417.278ZM442.332 1347.72L432.172 1375.64C431.585 1377.24 430.519 1378.79 428.972 1380.28C428.385 1380.84 427.545 1381.19 426.452 1381.32C426.025 1381.37 425.639 1381.4 425.292 1381.4C423.585 1381.4 422.279 1380.95 421.372 1380.04V1375.72C421.745 1376.25 422.265 1376.71 422.932 1377.08C423.599 1377.45 424.252 1377.64 424.892 1377.64C426.439 1377.64 427.425 1377.16 427.852 1376.2L428.372 1375.36C428.719 1374.8 428.999 1374.23 429.212 1373.64L418.172 1347.72H422.092L431.052 1369.16L438.492 1347.72H442.332Z" fill="white"/>
<path d="M227.28 1375.16L200 1375.16L200 1371.24L223.76 1371.24L223.76 1356.2L200 1356.2L200 1352.44L227.28 1352.44L227.28 1375.16ZM227.44 1393.87L200 1406.11L200 1402.11L208.08 1398.43L208.08 1386.83L200 1383.39L200 1379.39L227.44 1391.15L227.44 1393.87ZM221.44 1392.43L211.6 1388.35L211.6 1396.83L221.44 1392.43ZM227.28 1429.86L223.76 1429.86L223.76 1420.42L200 1420.42L200 1416.5L223.76 1416.5L223.76 1407.06L227.28 1407.06L227.28 1429.86ZM213.68 1432.6C217.787 1432.6 221.16 1434.02 223.8 1436.88C226.387 1439.65 227.68 1443.1 227.68 1447.24C227.68 1451.45 226.413 1454.93 223.88 1457.68C221.267 1460.48 217.867 1461.88 213.68 1461.88C209.493 1461.88 206.093 1460.48 203.48 1457.68C200.893 1454.88 199.6 1451.37 199.6 1447.16C199.6 1443.02 200.92 1439.56 203.56 1436.76C206.2 1433.98 209.573 1432.6 213.68 1432.6ZM213.68 1436.6C210.667 1436.6 208.173 1437.61 206.2 1439.64C204.253 1441.69 203.28 1444.22 203.28 1447.24C203.28 1450.28 204.253 1452.81 206.2 1454.84C208.147 1456.86 210.64 1457.88 213.68 1457.88C216.72 1457.88 219.213 1456.86 221.16 1454.84C223.107 1452.81 224.08 1450.28 224.08 1447.24C224.08 1444.17 223.107 1441.62 221.16 1439.6C219.24 1437.6 216.747 1436.6 213.68 1436.6ZM227.28 1490.75L200 1490.75L200 1486.83L211.92 1486.83L211.92 1471.55L200 1471.55L200 1467.63L227.28 1467.63L227.28 1471.55L215.44 1471.55L215.44 1486.83L227.28 1486.83L227.28 1490.75ZM200 1497.16L227.28 1497.16L227.28 1510.92L223.76 1510.92L223.76 1501.08L200 1501.08L200 1497.16Z" fill="white"/>
<path d="M602.04 1385.72H610.6C613.187 1385.72 615.253 1386.37 616.8 1387.68C618.427 1389.07 619.24 1391.03 619.24 1393.56C619.24 1396.15 618.32 1398.09 616.48 1399.4C614.853 1400.57 612.707 1401.16 610.04 1401.16H605.96V1413H602.04V1385.72ZM605.96 1389.24V1397.64H610.44C611.88 1397.64 613.04 1397.28 613.92 1396.56C614.8 1395.84 615.24 1394.79 615.24 1393.4C615.24 1390.63 613.693 1389.24 610.6 1389.24H605.96ZM635.894 1385.56L648.134 1413H644.134L640.454 1404.92H628.854L625.414 1413H621.414L633.174 1385.56H635.894ZM634.454 1391.56L630.374 1401.4H638.854L634.454 1391.56ZM674.607 1387.56V1391.8C671.461 1389.88 668.341 1388.92 665.247 1388.92C662.154 1388.92 659.567 1389.89 657.487 1391.84C655.407 1393.79 654.367 1396.31 654.367 1399.4C654.367 1402.55 655.434 1405.07 657.567 1406.96C659.621 1408.8 662.234 1409.72 665.407 1409.72C668.607 1409.72 671.781 1408.71 674.927 1406.68V1410.92C671.887 1412.57 668.581 1413.4 665.007 1413.4C660.314 1413.4 656.581 1411.84 653.807 1408.72C651.461 1406.08 650.287 1403.08 650.287 1399.72C650.287 1395.45 651.701 1391.99 654.527 1389.32C657.381 1386.65 660.954 1385.32 665.247 1385.32C667.887 1385.32 671.007 1386.07 674.607 1387.56ZM704.138 1387.56V1391.8C700.992 1389.88 697.872 1388.92 694.778 1388.92C691.685 1388.92 689.098 1389.89 687.018 1391.84C684.938 1393.79 683.898 1396.31 683.898 1399.4C683.898 1402.55 684.965 1405.07 687.098 1406.96C689.152 1408.8 691.765 1409.72 694.938 1409.72C698.138 1409.72 701.312 1408.71 704.458 1406.68V1410.92C701.418 1412.57 698.112 1413.4 694.538 1413.4C689.845 1413.4 686.112 1411.84 683.338 1408.72C680.992 1406.08 679.818 1403.08 679.818 1399.72C679.818 1395.45 681.232 1391.99 684.058 1389.32C686.912 1386.65 690.485 1385.32 694.778 1385.32C697.418 1385.32 700.538 1386.07 704.138 1387.56ZM721.91 1385.56L734.15 1413H730.15L726.47 1404.92H714.87L711.43 1413H707.43L719.19 1385.56H721.91ZM720.47 1391.56L716.39 1401.4H724.87L720.47 1391.56ZM762.383 1409.48H766.223V1417.32H762.863V1413H738.543V1417.4H735.503V1409.48H739.023L749.183 1385.56H751.903L762.383 1409.48ZM743.023 1409.48H758.303L750.463 1391.56L743.023 1409.48ZM782.222 1385.56L794.462 1413H790.462L786.782 1404.92H775.182L771.742 1413H767.742L779.502 1385.56H782.222ZM780.782 1391.56L776.702 1401.4H785.182L780.782 1391.56Z" fill="white"/>
<path d="M544.04 1623V1595.72H551.96C554.333 1595.72 556.28 1596.28 557.8 1597.4C559.507 1598.65 560.36 1600.41 560.36 1602.68C560.36 1605.32 558.973 1607.27 556.2 1608.52C558.147 1608.92 559.707 1609.72 560.88 1610.92C562.133 1612.2 562.76 1613.8 562.76 1615.72C562.76 1618.12 561.76 1619.97 559.76 1621.28C558.053 1622.43 555.933 1623 553.4 1623H544.04ZM547.96 1599.24V1607.4H550.52C554.36 1607.4 556.28 1605.93 556.28 1603C556.28 1600.49 554.707 1599.24 551.56 1599.24H547.96ZM547.96 1610.92V1619.48H552.84C555.373 1619.48 557.107 1618.79 558.04 1617.4C558.467 1616.76 558.68 1616.01 558.68 1615.16C558.68 1612.33 556.68 1610.92 552.68 1610.92H547.96ZM567.556 1595.72H571.236V1617.16L589.316 1595.72H592.836V1623H588.996V1601.48L570.916 1623H567.556V1595.72ZM598.266 1602.76V1595.72H602.106V1602.44C602.106 1604.47 602.999 1605.81 604.786 1606.48C605.853 1606.88 607.626 1607.08 610.106 1607.08H612.986V1595.72H616.906V1623H612.986V1610.44H608.106C604.693 1610.44 602.293 1610 600.906 1609.12C599.146 1608 598.266 1605.88 598.266 1602.76ZM624.899 1595.72H628.579V1617.16L646.659 1595.72H650.179V1623H646.339V1601.48L628.259 1623H624.899V1595.72ZM677.45 1595.72V1599.24H668.01V1623H664.09V1599.24H654.65V1595.72H677.45Z" fill="white"/>
<path d="M262.04 1961.72H270.6C273.187 1961.72 275.253 1962.37 276.8 1963.68C278.427 1965.07 279.24 1967.03 279.24 1969.56C279.24 1972.15 278.32 1974.09 276.48 1975.4C274.853 1976.57 272.707 1977.16 270.04 1977.16H265.96V1989H262.04V1961.72ZM265.96 1965.24V1973.64H270.44C271.88 1973.64 273.04 1973.28 273.92 1972.56C274.8 1971.84 275.24 1970.79 275.24 1969.4C275.24 1966.63 273.693 1965.24 270.6 1965.24H265.96ZM295.894 1961.56L308.134 1989H304.134L300.454 1980.92H288.854L285.414 1989H281.414L293.174 1961.56H295.894ZM294.454 1967.56L290.374 1977.4H298.854L294.454 1967.56ZM311.407 1989V1961.72H319.327C321.701 1961.72 323.647 1962.28 325.167 1963.4C326.874 1964.65 327.727 1966.41 327.727 1968.68C327.727 1971.32 326.341 1973.27 323.567 1974.52C325.514 1974.92 327.074 1975.72 328.247 1976.92C329.501 1978.2 330.127 1979.8 330.127 1981.72C330.127 1984.12 329.127 1985.97 327.127 1987.28C325.421 1988.43 323.301 1989 320.767 1989H311.407ZM315.327 1965.24V1973.4H317.887C321.727 1973.4 323.647 1971.93 323.647 1969C323.647 1966.49 322.074 1965.24 318.927 1965.24H315.327ZM315.327 1976.92V1985.48H320.207C322.741 1985.48 324.474 1984.79 325.407 1983.4C325.834 1982.76 326.047 1982.01 326.047 1981.16C326.047 1978.33 324.047 1976.92 320.047 1976.92H315.327ZM346.363 1961.56L358.603 1989H354.603L350.923 1980.92H339.323L335.883 1989H331.883L343.643 1961.56H346.363ZM344.923 1967.56L340.843 1977.4H349.323L344.923 1967.56ZM361.876 1961.72H365.556V1983.16L383.636 1961.72H387.156V1989H383.316V1967.48L365.236 1989H361.876V1961.72Z" fill="white"/>
<path d="M227.195 1625.42L228.061 1629.24L213.767 1624.44C213.838 1624.75 213.724 1625.21 213.426 1625.83L212.978 1626.75C212.455 1627.58 211.563 1628.59 210.301 1629.78L206.584 1633.29L204.549 1635.35L202.092 1638.08L201.067 1633.55L205.733 1628.8C208.002 1626.51 209.197 1625.27 209.318 1625.08C210.313 1623.68 210.61 1622.09 210.209 1620.32L209.856 1618.76L198.309 1621.38L197.442 1617.56L224.048 1611.53L224.914 1615.35L213.289 1617.99L213.837 1620.4L213.865 1620.89L227.195 1625.42ZM232.196 1646.76L208.139 1664.76L207.255 1660.86L214.322 1655.49L211.759 1644.18L203.118 1642.61L202.234 1638.71L231.595 1644.11L232.196 1646.76ZM226.026 1646.68L215.528 1644.88L217.402 1653.15L226.026 1646.68ZM235.91 1663.88L237.802 1672.23C238.374 1674.75 238.193 1676.91 237.261 1678.71C236.268 1680.6 234.536 1681.83 232.065 1682.39C229.543 1682.96 227.441 1682.49 225.76 1680.98C224.256 1679.66 223.209 1677.69 222.62 1675.09L221.718 1671.11L210.171 1673.73L209.305 1669.91L235.91 1663.88ZM233.344 1668.48L225.151 1670.34L226.141 1674.71C226.46 1676.11 227.067 1677.16 227.964 1677.86C228.86 1678.56 229.985 1678.76 231.337 1678.45C234.042 1677.84 235.053 1676.02 234.369 1673L233.344 1668.48ZM227.335 1687.57C231.34 1686.67 234.945 1687.31 238.15 1689.51C241.286 1691.64 243.311 1694.73 244.224 1698.76C245.155 1702.87 244.689 1706.54 242.825 1709.78C240.895 1713.09 237.889 1715.2 233.805 1716.13C229.722 1717.05 226.097 1716.44 222.929 1714.29C219.788 1712.13 217.752 1708.99 216.821 1704.89C215.907 1700.85 216.428 1697.18 218.384 1693.87C220.346 1690.58 223.33 1688.48 227.335 1687.57ZM228.219 1691.47C225.28 1692.14 223.072 1693.68 221.595 1696.09C220.151 1698.53 219.761 1701.21 220.427 1704.15C221.099 1707.11 222.608 1709.37 224.955 1710.92C227.301 1712.46 229.957 1712.9 232.922 1712.23C235.886 1711.56 238.094 1710.02 239.545 1707.61C240.995 1705.2 241.385 1702.52 240.713 1699.55C240.035 1696.56 238.523 1694.29 236.177 1692.75C233.862 1691.22 231.21 1690.8 228.219 1691.47ZM253.449 1741.28L226.843 1747.31L225.977 1743.48L237.602 1740.85L234.226 1725.95L222.6 1728.58L221.734 1724.76L248.34 1718.73L249.206 1722.55L237.659 1725.17L241.035 1740.07L252.583 1737.46L253.449 1741.28ZM230.824 1764.87L257.43 1758.85L261.001 1774.61L257.568 1775.38L254.863 1763.45L247.295 1765.16L248.727 1771.48C249.222 1773.67 248.846 1775.75 247.599 1777.73C246.352 1779.7 244.636 1780.94 242.451 1781.43L242.217 1781.49C239.851 1782.02 237.786 1781.48 236.024 1779.86C234.496 1778.42 233.453 1776.47 232.893 1774L230.824 1764.87ZM243.862 1765.94L235.123 1767.92L236.202 1772.68C236.762 1775.15 237.821 1776.69 239.38 1777.29C240.098 1777.57 240.873 1777.61 241.706 1777.42C243.266 1777.07 244.301 1776.2 244.81 1774.83C245.256 1773.66 245.294 1772.26 244.923 1770.62L243.862 1765.94ZM262.454 1781.02L263.267 1784.61L242.357 1789.35L267.263 1802.24L268.041 1805.67L241.435 1811.7L240.586 1807.96L261.574 1803.2L236.591 1790.32L235.848 1787.05L262.454 1781.02ZM262.375 1812.53L269.241 1810.97L270.089 1814.71L263.535 1816.2C261.559 1816.65 260.443 1817.82 260.188 1819.71C260.033 1820.83 260.23 1822.61 260.778 1825.03L261.415 1827.84L272.494 1825.33L273.36 1829.15L246.755 1835.18L245.888 1831.35L258.138 1828.58L257.059 1823.82C256.305 1820.49 256.204 1818.05 256.755 1816.51C257.459 1814.54 259.332 1813.21 262.375 1812.53Z" fill="white"/>
<path d="M326.68 1698.76V1691.72H330.52V1698.44C330.52 1700.47 331.413 1701.81 333.2 1702.48C334.267 1702.88 336.04 1703.08 338.52 1703.08H341.4V1691.72H345.32V1719H341.4V1706.44H336.52C333.107 1706.44 330.707 1706 329.32 1705.12C327.56 1704 326.68 1701.88 326.68 1698.76ZM364.753 1691.56L376.993 1719H372.993L369.313 1710.92H357.713L354.273 1719H350.273L362.033 1691.56H364.753ZM363.313 1697.56L359.233 1707.4H367.713L363.313 1697.56ZM391.707 1691.56L403.867 1719H399.467L390.267 1697.56L381.787 1719H377.787L388.987 1691.56H391.707ZM407.309 1705.32C407.309 1701.21 408.735 1697.84 411.589 1695.2C414.362 1692.61 417.815 1691.32 421.949 1691.32C426.162 1691.32 429.642 1692.59 432.389 1695.12C435.189 1697.73 436.589 1701.13 436.589 1705.32C436.589 1709.51 435.189 1712.91 432.389 1715.52C429.589 1718.11 426.082 1719.4 421.869 1719.4C417.735 1719.4 414.269 1718.08 411.469 1715.44C408.695 1712.8 407.309 1709.43 407.309 1705.32ZM411.309 1705.32C411.309 1708.33 412.322 1710.83 414.349 1712.8C416.402 1714.75 418.935 1715.72 421.949 1715.72C424.989 1715.72 427.522 1714.75 429.549 1712.8C431.575 1710.85 432.589 1708.36 432.589 1705.32C432.589 1702.28 431.575 1699.79 429.549 1697.84C427.522 1695.89 424.989 1694.92 421.949 1694.92C418.882 1694.92 416.335 1695.89 414.309 1697.84C412.309 1699.76 411.309 1702.25 411.309 1705.32ZM465.457 1691.72V1719H461.537V1707.08H446.257V1719H442.337V1691.72H446.257V1703.56H461.537V1691.72H465.457ZM471.868 1719V1691.72H485.628V1695.24H475.788V1719H471.868Z" fill="white"/>
</svg>
