<svg width="989" height="2119" viewBox="0 0 989 2119" fill="none" xmlns="http://www.w3.org/2000/svg">
<path d="M738.091 1532.12C723.291 1541.72 715.591 1561.78 713.591 1570.62C712.258 1567.45 708.592 1559.82 704.592 1554.62C699.592 1548.12 688.092 1545.12 678.592 1540.62C669.092 1536.12 666.092 1539.12 655.592 1538.62C645.092 1538.12 629.592 1535.62 620.092 1532.12C610.592 1528.62 602.092 1518.62 596.092 1511.12C590.092 1503.62 577.592 1472.12 570.592 1460.62C563.592 1449.12 554.592 1429.62 550.092 1424.62C545.592 1419.62 541.591 1419.12 538.091 1417.12C534.591 1415.12 535.091 1410.62 536.591 1408.12C538.091 1405.62 541.091 1395.12 545.091 1381.62C549.091 1368.12 546.091 1323.12 546.091 1312.12C546.091 1301.12 537.591 1277.12 536.591 1271.62C535.591 1266.12 537.591 1264.62 541.091 1263.62C544.591 1262.62 568.091 1261.62 580.591 1261.12C593.091 1260.62 629.591 1270.62 636.091 1275.12C642.591 1279.62 671.591 1282.62 680.091 1285.12C688.591 1287.62 713.591 1282.62 724.591 1282.62C735.591 1282.62 744.091 1275.12 753.091 1273.12C762.091 1271.12 767.091 1266.62 774.091 1264.62C781.091 1262.62 782.591 1264.62 784.091 1266.62C785.591 1268.62 791.591 1287.12 791.591 1294.12C791.591 1301.12 792.591 1310.12 793.591 1318.12C794.591 1326.12 812.591 1353.12 819.591 1359.12C826.591 1365.12 838.091 1388.62 841.091 1394.62C844.091 1400.62 840.591 1406.62 839.091 1410.62C837.591 1414.62 829.591 1420.62 826.591 1425.12C823.591 1429.62 824.591 1440.62 824.591 1445.62C824.591 1450.62 822.591 1452.12 818.591 1455.12C814.591 1458.12 811.591 1456.12 806.591 1462.62C801.591 1469.12 808.591 1496.62 809.591 1505.12C810.591 1513.62 809.591 1525.62 808.591 1529.12C807.591 1532.62 802.091 1532.12 796.091 1529.12C790.091 1526.12 777.091 1520.62 769.091 1518.62C761.091 1516.62 756.591 1520.12 738.091 1532.12Z" fill="#69EC41" fill-opacity="0.5" stroke="white" stroke-width="5"/>
<path d="M548.591 1423.62C546.191 1420.02 537.591 1415.45 533.591 1413.62C532.758 1413.12 530.292 1414.42 527.092 1423.62C523.092 1435.12 490.592 1469.62 476.092 1485.62C461.592 1501.62 409.592 1530.62 401.592 1535.12C393.592 1539.62 378.591 1545.62 374.091 1546.62C369.591 1547.62 371.591 1549.62 371.091 1553.12C370.591 1556.62 381.091 1578.12 390.591 1592.62C400.091 1607.12 411.091 1606.62 418.091 1607.62C425.091 1608.62 435.091 1604.12 444.091 1603.12C453.091 1602.12 454.091 1604.62 460.091 1609.62C466.091 1614.62 466.091 1633.12 469.091 1644.12C472.091 1655.12 474.091 1660.12 484.091 1662.62C494.091 1665.12 511.591 1642.62 514.091 1640.12C516.591 1637.62 525.091 1635.62 530.591 1638.12C536.091 1640.62 544.091 1656.12 547.091 1662.62C550.091 1669.12 555.091 1679.12 557.591 1686.62C560.091 1694.12 566.591 1697.62 572.091 1702.62C577.548 1707.58 583.005 1708.6 590.905 1710.08L591.091 1710.12C599.091 1711.62 602.091 1707.62 613.091 1713.12C624.091 1718.62 625.591 1724.62 628.091 1729.12C630.591 1733.62 631.091 1741.62 630.591 1748.62C630.091 1755.62 634.591 1769.62 636.591 1774.12C638.591 1778.62 649.091 1793.12 655.091 1800.12C661.091 1807.12 662.091 1812.12 672.091 1833.62C682.091 1855.12 687.591 1854.12 692.591 1855.12C697.591 1856.12 702.091 1848.62 706.091 1846.12C710.091 1843.62 714.591 1840.12 716.591 1837.12C718.591 1834.12 724.091 1832.12 731.091 1833.62C738.091 1835.12 743.591 1846.12 748.591 1853.12C753.591 1860.12 776.591 1869.12 787.091 1874.12L787.341 1874.24C798.028 1879.33 825.626 1892.47 830.091 1874.12C834.591 1855.62 820.591 1853.12 814.591 1846.12C808.591 1839.12 792.091 1838.12 785.591 1835.12C779.091 1832.12 771.091 1831.12 768.591 1829.62C766.091 1828.12 762.091 1823.12 760.591 1819.62C759.091 1816.12 766.091 1807.12 768.591 1804.62C771.091 1802.12 771.091 1794.12 771.091 1791.12C771.091 1788.12 765.591 1781.62 760.591 1777.12C755.591 1772.62 753.591 1768.62 752.091 1765.12C750.591 1761.62 754.591 1761.12 756.091 1757.62C757.591 1754.12 763.591 1752.62 767.091 1750.12C770.591 1747.62 771.091 1744.12 771.091 1740.12C771.091 1736.12 766.591 1732.62 763.591 1729.12C760.591 1725.62 758.091 1721.12 758.591 1716.62C759.091 1712.12 766.591 1712.12 771.091 1710.12C775.591 1708.12 787.591 1710.62 794.591 1704.62C801.591 1698.62 795.091 1698.62 789.591 1693.12C784.091 1687.62 762.591 1686.12 752.091 1682.12C741.591 1678.12 733.591 1667.12 730.591 1662.62C727.591 1658.12 724.591 1647.12 723.591 1642.62C722.591 1638.12 713.591 1624.62 710.091 1617.12C706.591 1609.62 708.091 1597.12 710.091 1590.12C712.091 1583.12 713.091 1570.62 712.091 1564.12C711.091 1557.62 705.092 1553.62 699.091 1549.12C693.709 1545.08 684.091 1541.62 675.091 1539.12C666.091 1536.62 656.591 1540.12 640.091 1537.62C623.591 1535.12 612.591 1527.62 610.091 1526.12C607.591 1524.62 598.091 1512.62 595.591 1509.12C593.091 1505.62 581.591 1480.62 578.591 1472.62C575.591 1464.62 566.591 1455.62 564.091 1447.12C561.591 1438.62 551.591 1428.12 548.591 1423.62Z" fill="#69EC41" fill-opacity="0.5" stroke="white" stroke-width="5"/>
<path d="M390.091 1592.62C384.891 1587.42 374.258 1561.12 369.591 1548.62C359.091 1551.12 335.792 1556.72 326.592 1559.12C315.092 1562.12 289.092 1559.62 280.092 1559.12C271.092 1558.62 263.592 1552.62 256.592 1550.12C249.592 1547.62 251.092 1552.12 248.092 1557.12C245.092 1562.12 242.591 1582.62 240.091 1592.62C237.591 1602.62 243.091 1614.62 246.091 1626.62C249.091 1638.62 265.591 1653.62 272.091 1658.12C278.591 1662.62 286.591 1677.12 287.091 1681.62C287.591 1686.12 281.091 1704.12 278.091 1713.12C275.091 1722.12 278.591 1734.12 281.091 1746.62C283.591 1759.12 296.091 1774.12 299.091 1779.12C302.091 1784.12 320.591 1799.62 324.091 1802.12C327.591 1804.62 330.091 1799.62 337.091 1797.12C344.091 1794.62 366.091 1793.12 386.591 1793.12C407.091 1793.12 418.091 1798.62 432.591 1802.12C447.091 1805.62 453.591 1812.12 457.591 1814.62C461.591 1817.12 463.091 1813.62 465.091 1811.12C467.091 1808.62 479.091 1791.62 483.091 1784.62C487.091 1777.62 504.091 1764.62 510.591 1756.62C517.091 1748.62 559.591 1727.62 574.091 1720.62C588.591 1713.62 590.091 1712.62 584.091 1710.12C578.091 1707.62 560.091 1694.12 554.591 1682.62C549.091 1671.12 541.091 1647.12 535.091 1641.12C529.091 1635.12 526.091 1637.62 520.091 1638.12C514.091 1638.62 502.091 1651.12 496.091 1657.62C490.091 1664.12 486.591 1663.62 479.091 1663.62C471.591 1663.62 473.091 1654.12 470.591 1647.12C468.091 1640.12 466.091 1619.12 460.091 1609.62C454.091 1600.12 441.091 1604.62 435.091 1605.12C429.091 1605.62 419.091 1608.62 410.091 1606.62C401.091 1604.62 396.591 1599.12 390.091 1592.62Z" fill="#69EC41" fill-opacity="0.5" stroke="white" stroke-width="5"/>
<path d="M220.592 2029.12C207.392 2030.72 194.425 2022.45 189.592 2018.12C195.592 2006.28 208.492 1980.62 212.092 1972.62C216.592 1962.62 245.092 1923.12 252.092 1916.12C259.092 1909.12 280.092 1876.12 291.092 1867.62C302.092 1859.12 314.092 1837.12 316.092 1826.62C318.092 1816.12 323.592 1809.62 326.592 1804.12C329.592 1798.62 332.592 1799.62 338.592 1797.62C344.592 1795.62 365.592 1794.12 386.592 1793.12C407.592 1792.12 424.592 1800.12 436.092 1804.12C447.592 1808.12 457.592 1813.12 460.592 1815.62C463.592 1818.12 461.092 1822.62 460.592 1825.12C460.092 1827.62 451.092 1849.62 447.092 1855.62C443.092 1861.62 435.592 1896.62 430.592 1910.12C425.592 1923.62 425.092 1930.62 423.592 1946.12C422.092 1961.62 424.887 1962.05 430.592 1967.12C435.092 1971.12 440.592 1974.62 440.592 1980.62C440.592 1984.92 437.092 2000.62 435.092 2012.12C433.092 2023.62 423.592 2025.62 418.092 2028.62C412.592 2031.62 382.592 2031.12 377.092 2031.62C371.592 2032.12 349.092 2039.12 349.092 2057.62C349.092 2076.12 345.592 2081.62 342.092 2088.12C338.592 2094.62 329.592 2097.12 321.592 2098.62C313.592 2100.12 302.592 2100.62 294.592 2101.62C286.592 2102.62 279.592 2106.62 274.592 2109.62C269.592 2112.62 261.592 2117.62 256.592 2114.62C251.592 2111.62 256.592 2102.12 256.592 2094.62C256.592 2087.12 265.092 2055.62 266.592 2049.62C268.092 2043.62 269.092 2027.62 259.092 2023.12C249.092 2018.62 237.092 2027.12 220.592 2029.12Z" fill="#69EC41" fill-opacity="0.5" stroke="white" stroke-width="5"/>
<path d="M89.5923 1586.61C81.0923 1575.61 87.5923 1560.61 88.0923 1559.61C88.9255 1558.95 92.7918 1557.51 101.592 1557.11C112.592 1556.61 125.592 1560.12 139.592 1574.11C152.462 1586.98 174.592 1585.61 180.592 1585.61C186.592 1585.61 224.092 1571.11 233.592 1566.61C243.092 1562.11 246.092 1560.11 247.092 1562.61C248.092 1565.11 245.592 1572.11 243.092 1578.11C240.592 1584.11 240.592 1611.11 243.092 1618.11C245.592 1625.11 247.592 1640.61 269.592 1659.11C291.592 1677.61 286.592 1683.11 285.592 1691.11C284.592 1699.11 276.092 1704.61 277.092 1725.11C278.092 1745.61 286.092 1755.61 290.092 1765.11C294.092 1774.61 305.592 1785.11 308.592 1789.11C311.592 1793.11 330.092 1803.61 327.092 1804.61C324.092 1805.61 322.092 1809.61 319.592 1813.61C317.092 1817.61 315.592 1830.61 311.092 1842.11C306.592 1853.61 248.592 1917.61 238.092 1932.61C227.592 1947.61 207.092 1984.11 205.092 1987.61C203.092 1991.11 195.592 2010.61 194.592 2013.61C193.592 2016.61 190.592 2019.11 185.592 2017.11C180.592 2015.11 180.092 2012.11 175.592 2006.11C171.092 2000.11 172.092 1995.11 169.592 1987.61C167.092 1980.11 168.092 1972.11 168.092 1963.61C168.092 1955.11 177.092 1946.11 182.092 1943.11C187.092 1940.11 201.592 1928.61 207.092 1925.61C212.592 1922.61 211.092 1915.11 212.092 1910.61C213.092 1906.11 204.592 1899.61 203.592 1895.61C202.592 1891.61 206.092 1893.11 209.092 1890.61C212.092 1888.11 217.092 1885.11 220.092 1880.61C223.092 1876.11 222.092 1855.61 222.092 1848.61C222.092 1841.61 215.592 1820.11 212.092 1820.11C208.592 1820.11 206.592 1819.11 198.592 1820.11C190.592 1821.11 188.592 1818.61 182.092 1815.61C175.592 1812.61 173.592 1807.61 173.592 1800.11C173.592 1792.61 178.592 1779.61 182.092 1773.61C185.592 1767.61 188.592 1763.11 191.592 1755.61C194.592 1748.11 195.092 1735.61 195.092 1731.11C195.092 1726.61 189.592 1701.61 188.592 1696.11C187.592 1690.61 181.592 1668.61 178.592 1656.11C175.592 1643.61 163.092 1619.11 156.592 1613.61C150.092 1608.11 130.092 1602.11 122.592 1599.11C115.092 1596.11 98.0923 1597.61 89.5923 1586.61Z" fill="#69EC41" fill-opacity="0.5" stroke="white" stroke-width="5"/>
<path d="M116.092 1351.12C112.892 1349.92 102.426 1338.62 97.5924 1333.12C99.2589 1328.62 103.492 1317.52 107.092 1309.12C111.592 1298.62 116.092 1295.62 127.592 1284.12C139.091 1272.62 203.592 1274.62 214.592 1276.62C225.592 1278.62 244.592 1286.12 256.592 1304.62C284.592 1353.62 274.092 1409.12 274.092 1414.62C274.092 1420.12 259.092 1504.62 258.092 1512.62C257.092 1520.62 253.092 1540.12 251.592 1544.12C250.092 1548.12 249.592 1556.12 246.092 1560.62C242.592 1565.12 220.092 1572.62 216.592 1574.62C213.092 1576.62 190.592 1584.12 183.092 1586.12C175.592 1588.12 162.592 1585.62 156.592 1584.12C150.592 1582.62 141.592 1576.62 130.092 1566.62C118.592 1556.62 112.592 1559.12 105.092 1557.62C97.5918 1556.12 92.5918 1560.12 90.0918 1560.12C87.5918 1560.12 88.0918 1557.62 88.0918 1553.62C88.0918 1549.62 90.0918 1545.62 90.0918 1540.62C90.0918 1535.62 87.0918 1535.62 83.0924 1532.62C79.0931 1529.62 70.5918 1533.62 64.5918 1534.12C58.5918 1534.62 52.0918 1534.62 47.0918 1532.62C42.0918 1530.62 32.0924 1516.12 30.5924 1508.12C29.0924 1500.12 30.5924 1478.12 30.5924 1474.62C30.5924 1471.12 33.0924 1466.62 36.0924 1464.62C39.0924 1462.62 46.0924 1465.62 49.5924 1466.62C53.0924 1467.62 56.5924 1465.12 62.5924 1463.62C68.5924 1462.12 68.0924 1465.62 72.0924 1468.12C76.0924 1470.62 81.0924 1486.12 83.0924 1490.12C85.0924 1494.12 90.5924 1494.62 95.5924 1495.62C100.592 1496.62 114.592 1487.62 119.092 1486.12C123.592 1484.62 126.592 1480.62 130.092 1479.62C133.592 1478.62 135.592 1480.62 141.592 1480.62C147.592 1480.62 149.592 1481.62 154.592 1480.62C159.592 1479.62 169.092 1473.12 175.092 1451.12C181.092 1429.12 176.092 1406.62 174.092 1394.12C172.092 1381.62 159.592 1371.62 156.092 1366.62C152.592 1361.62 142.592 1359.12 138.592 1357.12C134.592 1355.12 120.092 1352.62 116.092 1351.12Z" fill="#69EC41" fill-opacity="0.5" stroke="white" stroke-width="5"/>
<path d="M276.092 1375.62C278.143 1335.82 254.925 1299.45 241.592 1286.12C250.092 1277.62 258.592 1253.92 262.592 1247.12C267.592 1238.62 271.592 1218.12 272.092 1215.12C272.592 1212.12 275.092 1206.12 277.592 1205.12C280.092 1204.12 282.092 1208.12 289.092 1210.12C296.092 1212.12 302.092 1206.12 309.092 1204.12C316.092 1202.12 315.592 1201.62 326.092 1196.62C336.592 1191.62 350.092 1192.62 364.592 1191.62C379.092 1190.62 390.592 1193.62 399.592 1194.12C408.592 1194.62 419.092 1204.62 423.592 1207.12C428.092 1209.62 434.092 1219.12 438.592 1222.62C451.592 1230.12 453.092 1222.62 459.092 1219.12C465.092 1215.62 464.592 1212.62 466.592 1210.62C468.592 1208.62 473.092 1208.12 476.092 1209.62C479.092 1211.12 487.092 1237.12 490.092 1242.62C493.092 1248.12 498.092 1255.12 509.592 1262.12C521.092 1269.12 533.592 1264.12 536.592 1266.12C539.592 1268.12 542.592 1286.62 545.592 1295.12C548.592 1303.62 547.592 1329.12 548.092 1337.62C548.592 1346.12 547.092 1364.12 545.592 1373.12C544.092 1382.12 538.592 1397.62 530.092 1419.12C521.592 1440.62 480.592 1480.62 477.092 1484.62C449.592 1520.12 353.592 1558.62 324.592 1561.12C295.592 1563.62 271.592 1555.12 264.092 1554.12C256.592 1553.12 251.592 1549.62 251.092 1543.12C250.592 1536.62 271.092 1472.62 276.092 1375.62Z" fill="#69EC41" fill-opacity="0.5" stroke="white" stroke-width="5"/>
<path d="M98.5901 1121.62C92.5901 1116.42 86.4234 1099.78 84.0901 1092.12C85.2573 1091.45 88.3918 1089.82 91.5918 1088.62C95.5918 1087.12 110.092 1088.62 116.592 1090.12C123.092 1091.62 149.092 1099.62 157.592 1102.62C166.092 1105.62 176.092 1111.12 188.592 1111.12C201.092 1111.12 228.592 1118.62 238.092 1123.62C247.592 1128.62 257.092 1148.12 264.592 1155.62C272.092 1163.12 275.092 1165.12 277.592 1178.12C280.092 1191.12 273.092 1209.12 272.092 1218.12C271.092 1227.12 258.092 1255.62 255.592 1262.62C253.092 1269.62 247.092 1278.62 244.592 1281.62C242.092 1284.62 241.592 1289.12 234.092 1282.62C226.592 1276.12 218.592 1278.12 202.092 1276.12C185.592 1274.12 185.592 1276.12 159.092 1276.12C134.092 1274.12 124.592 1288.12 120.092 1289.62C115.592 1291.12 109.592 1304.62 106.092 1310.12C102.592 1315.62 101.092 1323.62 100.592 1327.12C100.092 1330.62 98.0918 1336.12 92.5918 1331.62C87.0918 1327.12 76.5918 1326.62 67.0918 1322.62C57.5918 1318.62 57.0918 1323.12 51.0918 1323.62C45.0918 1324.12 43.0918 1329.62 40.0918 1331.62C37.0918 1333.62 30.5918 1332.12 26.0918 1331.62C21.5918 1331.12 18.5918 1326.62 14.0918 1316.62C9.5918 1306.62 19.5918 1291.62 21.5918 1289.62C23.5918 1287.62 30.0918 1280.62 29.0918 1274.62C28.0918 1268.62 15.5918 1270.62 13.0901 1270.12C10.5884 1269.62 4.09097 1265.62 3.09097 1261.62C2.09097 1257.62 9.5901 1235.62 13.0901 1231.12C16.5901 1226.62 14.0901 1217.62 13.0901 1213.62C12.0901 1209.62 9.0901 1206.62 9.5901 1201.62C10.0901 1196.62 12.5901 1199.12 17.5901 1197.12C22.5901 1195.12 31.0901 1200.62 39.0901 1201.62C47.0901 1202.62 56.0901 1199.62 60.5901 1197.12C65.0901 1194.62 70.0901 1189.62 75.0901 1187.62C80.0901 1185.62 88.5901 1188.62 96.0901 1185.62C103.59 1182.62 105.09 1171.62 108.09 1165.12C111.09 1158.62 112.09 1140.12 111.59 1133.62C111.09 1127.12 106.09 1128.12 98.5901 1121.62Z" fill="#69EC41" fill-opacity="0.5" stroke="white" stroke-width="5"/>
<path d="M486.092 1230.62C485.292 1222.62 477.759 1212.28 474.092 1208.12C472.425 1203.62 468.692 1193.62 467.092 1189.62C465.092 1184.62 459.092 1159.12 459.592 1152.12C460.092 1145.12 465.092 1141.12 469.092 1138.12C473.092 1135.12 506.592 1124.12 517.592 1122.62C528.592 1121.12 546.092 1111.62 555.092 1108.12C564.092 1104.62 575.592 1101.12 585.592 1098.12C595.592 1095.12 617.092 1093.62 626.092 1092.12C635.092 1090.62 647.592 1090.62 663.092 1088.62C678.592 1086.62 685.592 1090.12 689.592 1093.62C693.592 1097.12 691.592 1097.62 691.592 1115.12C691.592 1132.62 694.592 1152.12 695.592 1158.12C696.592 1164.12 704.592 1185.62 717.592 1198.62C730.592 1211.62 755.092 1236.12 762.592 1240.62C770.092 1245.12 780.592 1257.62 780.092 1263.12C779.592 1268.62 747.092 1275.12 734.092 1280.12C721.092 1285.12 708.592 1284.12 689.592 1285.12C670.592 1286.12 634.092 1274.12 622.592 1269.12C611.092 1264.12 584.592 1259.62 547.092 1263.12C509.592 1266.62 505.092 1260.62 501.592 1257.62C498.092 1254.62 487.092 1240.62 486.092 1230.62Z" fill="#69EC41" fill-opacity="0.5" stroke="white" stroke-width="5"/>
<path d="M692.092 1093.62C691.692 1089.22 701.925 1055.78 707.092 1039.62C703.425 1040.45 694.192 1043.12 686.592 1047.12C677.092 1052.12 657.092 1056.12 640.592 1059.62C624.092 1063.12 600.092 1057.62 584.592 1056.12C569.092 1054.62 545.092 1032.62 537.092 1024.12C529.092 1015.62 518.592 991.616 520.592 980.616C522.592 969.616 530.592 968.616 538.592 958.116C546.592 947.616 564.592 921.116 568.592 915.116C572.592 909.116 575.592 889.116 575.592 880.116C575.592 871.276 573.662 862.918 572.172 856.464L572.092 856.116C570.592 849.616 566.592 849.616 562.592 850.616C558.592 851.616 529.092 860.616 518.592 862.616C508.092 864.616 491.092 866.616 483.092 868.616C475.092 870.616 445.592 867.116 415.092 866.616C384.592 866.116 380.092 873.616 373.592 877.616C367.092 881.616 345.592 908.116 341.592 913.616C337.592 919.116 326.092 926.616 319.592 926.616C313.092 926.616 307.592 924.616 304.092 924.116C300.592 923.616 300.592 937.116 297.092 943.616C293.592 950.116 286.092 970.616 290.592 975.616C295.092 980.616 305.092 985.116 313.592 989.116C322.092 993.116 333.092 1003.12 333.592 1011.12C334.092 1019.12 318.592 1031.12 313.592 1034.12C308.592 1037.12 296.092 1042.12 286.092 1043.62C276.092 1045.12 275.092 1062.12 272.592 1068.62C270.092 1075.12 269.592 1103.12 270.092 1113.12C270.592 1123.12 273.092 1151.62 275.092 1160.12C277.092 1168.62 277.092 1181.12 277.092 1186.62C277.092 1192.12 277.592 1204.12 279.092 1205.62C280.592 1207.12 295.592 1208.12 301.592 1208.12C307.592 1208.12 328.592 1197.62 333.592 1194.12C338.592 1190.62 370.592 1191.12 380.092 1189.62C389.592 1188.12 406.592 1196.12 412.592 1197.62C418.592 1199.12 431.592 1214.62 434.592 1218.12C437.592 1221.62 444.592 1226.62 450.592 1226.12C456.592 1225.62 459.592 1218.12 461.092 1214.62C462.592 1211.12 470.592 1209.62 473.092 1208.12C475.592 1206.62 472.092 1199.12 467.092 1185.12C462.092 1171.12 460.092 1166.12 459.592 1154.62C459.092 1143.12 465.592 1142.62 470.592 1136.62C475.592 1130.62 520.592 1121.12 530.092 1117.62C539.592 1114.12 568.592 1108.62 583.092 1099.12C597.592 1089.62 671.092 1088.12 680.592 1089.62C690.092 1091.12 692.592 1099.12 692.092 1093.62Z" fill="#69EC41" fill-opacity="0.5" stroke="white" stroke-width="5"/>
<path d="M58.5933 750.116C59.3933 743.316 52.9266 728.283 49.5933 721.616C54.0928 726.116 63.9918 735.716 67.5918 738.116C72.0918 741.116 79.5918 743.116 116.592 746.616C153.592 750.116 179.092 735.616 187.092 731.616C193.492 728.416 200.758 721.616 203.592 718.616C205.258 720.116 209.292 724.116 212.092 728.116C215.592 733.116 222.592 753.116 225.592 760.116C228.592 767.116 236.592 797.116 241.592 811.116C246.592 825.116 268.592 865.116 272.092 871.116C275.592 877.116 288.592 902.616 290.092 904.616C291.592 906.616 301.592 923.116 302.592 926.116C303.592 929.116 298.592 942.116 296.592 947.116C294.592 952.116 290.592 957.616 289.592 964.116C288.592 970.616 295.092 976.616 299.592 981.616C304.092 986.616 317.592 993.116 322.592 996.116C327.592 999.116 332.592 1005.62 332.092 1013.12C331.592 1020.62 324.592 1025.12 322.592 1028.62C320.592 1032.12 297.592 1041.62 287.592 1043.12C277.592 1044.62 275.092 1057.62 272.592 1061.12C270.092 1064.62 269.092 1092.62 268.592 1099.12C268.092 1105.62 271.092 1116.62 270.592 1129.12C270.092 1141.62 272.592 1145.62 273.592 1152.12C274.592 1158.62 273.592 1163.62 267.092 1157.62C260.592 1151.62 257.092 1141.12 254.092 1135.62C251.092 1130.12 239.092 1124.12 227.592 1118.62C216.092 1113.12 199.092 1113.12 191.092 1112.62C183.092 1112.12 168.092 1104.62 162.092 1103.62C156.092 1102.62 145.092 1096.12 132.092 1092.62C119.092 1089.12 107.092 1089.62 100.092 1088.12C93.0918 1086.62 90.0918 1092.12 87.0918 1092.62C84.0918 1093.12 82.0918 1091.62 79.0918 1085.62C76.0918 1079.62 64.5918 1049.62 61.0928 1043.62C57.5937 1037.62 50.5918 1035.62 44.5928 1031.62C38.5937 1027.62 40.0928 1024.62 38.5928 1019.62C37.0928 1014.62 40.5928 1015.62 44.5928 1011.12C48.5928 1006.62 52.0928 1010.12 61.0928 1011.12C70.0928 1012.12 81.5928 1019.62 95.0928 1019.62C128.593 1019.62 138.593 994.116 142.593 981.616C146.593 969.116 143.093 938.116 142.593 898.616C142.093 859.116 132.093 835.116 130.593 830.116C129.093 825.116 116.093 815.116 104.093 813.616C92.1956 812.129 66.0461 797.864 60.2388 794.696L60.0928 794.616C54.5928 791.616 46.5933 783.116 44.5933 778.616C42.5933 774.116 47.5933 771.616 49.5933 768.616C51.5933 765.616 57.5933 758.616 58.5933 750.116Z" fill="#69EC41" fill-opacity="0.5" stroke="white" stroke-width="5"/>
<path d="M635.592 545.616C633.592 544.416 622.426 530.449 617.092 523.616C568.592 533.616 555.592 546.116 541.592 558.116C524.092 573.116 529.092 577.616 523.592 598.116C518.092 618.616 529.592 646.116 541.592 657.116C553.592 668.116 566.592 668.116 576.092 670.616C585.592 673.116 589.592 675.616 595.592 682.616C601.592 689.616 596.092 692.616 594.092 699.116C592.092 705.616 579.592 723.116 576.092 727.116C572.592 731.116 556.592 754.616 553.592 770.116C550.592 785.616 558.092 811.116 559.592 819.616C561.092 828.116 570.092 847.616 572.592 854.116C575.092 860.616 573.092 876.116 574.592 881.116C580.092 900.116 557.092 932.116 553.592 938.616C550.092 945.116 530.092 964.616 524.592 971.616C519.092 978.616 521.592 983.616 521.592 991.116C521.592 998.616 528.592 1005.12 530.092 1010.12C531.592 1015.12 543.592 1030.62 548.592 1035.62C553.592 1040.62 566.592 1050.12 572.592 1052.12C578.592 1054.12 607.592 1059.12 623.592 1060.12C639.592 1061.12 663.899 1054.87 678.592 1050.12C695.592 1044.62 703.426 1044.99 707.592 1039.62C710.133 1036.34 731.472 996.085 738.092 989.616C744.459 983.394 749.092 978.616 755.092 975.116C761.092 971.616 760.592 972.616 765.592 975.116C770.592 977.616 771.592 989.616 775.592 992.616C779.592 995.616 785.592 994.116 793.592 996.616C801.592 999.116 810.592 1008.12 819.592 1010.62C828.592 1013.12 831.092 1008.62 835.592 1005.12C840.092 1001.62 835.592 991.116 834.092 986.116C832.592 981.116 816.592 965.616 810.592 962.616C804.592 959.616 786.092 943.616 779.092 936.616C772.092 929.616 759.092 913.116 756.592 908.616C754.092 904.116 749.592 910.616 745.092 907.116C740.592 903.616 743.592 900.116 745.092 895.616C746.592 891.116 765.592 883.616 752.092 831.116C738.592 778.616 769.592 755.616 774.092 752.116C778.592 748.616 789.092 746.116 794.092 745.116C799.092 744.116 800.592 741.116 801.592 735.116C802.592 729.116 804.592 725.116 805.092 721.616C805.592 718.116 811.092 719.116 815.592 719.116C820.092 719.116 848.092 733.616 855.592 733.616C863.092 733.616 860.092 727.116 859.092 721.616C858.092 716.116 850.092 699.116 851.092 695.616C852.092 692.116 847.092 679.116 843.092 674.116C839.092 669.116 830.092 665.116 834.092 652.616C838.092 640.116 853.092 635.116 855.592 633.116C858.092 631.116 879.092 617.616 886.592 615.116C894.092 612.616 906.092 598.116 908.592 594.616C911.092 591.116 909.592 586.616 907.092 582.116C904.592 577.616 893.592 577.116 886.592 576.116C879.592 575.116 872.592 575.116 866.592 570.116C860.592 565.116 862.592 553.116 861.592 546.616C860.592 540.117 870.59 525.12 872.591 522.117L872.592 522.116C874.592 519.116 879.592 510.116 883.092 506.616C886.592 503.116 885.592 496.116 885.092 492.616C884.592 489.116 877.592 483.616 874.592 481.616C871.592 479.616 860.592 477.616 856.592 476.616C852.592 475.616 845.092 463.116 844.092 459.616C843.092 456.116 833.092 444.116 828.092 440.616C823.092 437.116 811.592 439.616 804.092 440.616C796.592 441.616 792.592 450.116 788.592 456.116C784.592 462.116 780.592 482.116 777.592 491.616C774.592 501.116 767.092 507.616 761.592 511.616C756.092 515.616 736.592 518.616 728.592 522.116C720.592 525.616 717.592 533.116 715.092 538.616C712.592 544.116 703.592 556.116 699.592 553.116C695.592 550.116 683.592 536.616 680.592 536.116C677.592 535.616 673.592 540.116 669.592 544.616C665.592 549.116 659.592 551.616 655.592 553.116C651.592 554.616 638.092 547.116 635.592 545.616Z" fill="#69EC41" fill-opacity="0.5" stroke="white" stroke-width="5"/>
<path d="M465.092 394.617C465.092 406.617 456.425 406.283 452.092 404.617C442.758 416.116 423.092 440.316 419.092 445.116C414.092 451.116 393.592 472.116 389.592 477.116C385.592 482.116 364.092 495.116 356.592 498.116C349.092 501.116 339.092 503.116 335.592 504.616C332.092 506.116 310.092 527.616 303.092 535.616C297.492 542.016 293.092 545.616 275.092 563.616C263.118 575.59 230.092 628.116 223.592 653.116C221.394 661.567 219.092 673.616 214.092 698.616C212.551 706.322 207.258 714.116 205.092 717.116C207.758 720.783 213.792 729.216 216.592 733.616C220.092 739.116 222.592 751.616 223.592 756.616C224.592 761.616 232.592 778.116 235.592 785.616C238.592 793.116 248.592 827.616 252.092 834.616C255.592 841.616 266.092 861.116 276.092 880.616C281.219 890.614 297.092 917.616 300.592 921.116C304.092 924.616 308.592 927.116 317.092 926.616C325.592 926.116 325.092 926.616 339.592 916.116C354.092 905.616 359.092 894.616 369.592 881.616C380.049 868.669 391.592 868.116 394.592 867.616C406.063 865.704 466.092 867.616 485.592 867.616C501.192 867.616 504.592 866.116 522.092 863.116C540.592 859.116 568.818 849.116 567.592 847.116C558.092 831.616 553.592 790.616 553.092 781.616C552.592 772.616 558.092 754.116 560.592 750.116C565.28 742.615 595.092 697.116 596.592 694.116C598.092 691.116 605.092 675.116 571.592 671.116C538.092 667.116 521.592 633.616 521.592 613.116C522.592 566.116 539.592 560.116 554.592 546.116C569.592 532.116 591.592 531.616 598.092 528.116C603.292 525.316 613.258 523.616 617.592 523.116C611.758 518.283 598.392 506.716 591.592 499.116C583.092 489.616 538.592 471.116 547.092 428.616C555.592 386.116 520.592 362.117 510.592 360.117C500.592 358.117 493.092 359.117 486.592 360.117C480.092 361.117 475.092 365.617 472.592 367.617C470.092 369.617 465.092 379.617 465.092 394.617Z" fill="#69EC41" fill-opacity="0.5"/>
<path d="M452.092 404.617L452.989 402.283L451.295 401.632L450.151 403.041L452.092 404.617ZM591.592 499.116L593.455 497.449L591.592 499.116ZM617.592 523.116L617.878 525.6C618.873 525.485 619.704 524.788 619.988 523.828C620.273 522.868 619.958 521.83 619.187 521.191L617.592 523.116ZM598.092 528.116L596.907 525.915L598.092 528.116ZM521.592 613.116L519.092 613.063L519.092 613.09V613.116H521.592ZM560.592 750.116L558.472 748.791L560.592 750.116ZM567.592 847.116L569.723 845.81L567.592 847.116ZM522.092 863.116L522.514 865.58L522.567 865.571L522.62 865.56L522.092 863.116ZM394.592 867.616L395.003 870.082L394.592 867.616ZM369.592 881.616L367.647 880.045L369.592 881.616ZM276.092 880.616L278.316 879.475H278.316L276.092 880.616ZM216.592 733.616L218.701 732.274H218.701L216.592 733.616ZM205.092 717.116L203.065 715.652L202.004 717.121L203.07 718.587L205.092 717.116ZM214.092 698.616L211.64 698.126L214.092 698.616ZM223.592 653.116L226.011 653.745L223.592 653.116ZM275.092 563.616L273.324 561.848L275.092 563.616ZM303.092 535.616L304.973 537.262L303.092 535.616ZM419.092 445.116L421.012 446.717L419.092 445.116ZM451.194 406.95C453.681 407.907 457.679 408.611 461.235 407.025C465.118 405.292 467.592 401.264 467.592 394.617H462.592C462.592 399.969 460.732 401.774 459.198 402.459C457.337 403.289 454.836 402.993 452.989 402.283L451.194 406.95ZM467.592 394.617C467.592 387.391 468.797 381.411 470.273 377.042C471.012 374.855 471.81 373.096 472.542 371.799C473.309 370.44 473.902 369.77 474.154 369.569L471.03 365.664C470.031 366.463 469.062 367.793 468.188 369.341C467.28 370.95 466.36 373.003 465.536 375.441C463.887 380.322 462.592 386.842 462.592 394.617H467.592ZM474.154 369.569C476.826 367.431 481.27 363.465 486.972 362.588L486.212 357.646C478.913 358.768 473.357 363.803 471.03 365.664L474.154 369.569ZM486.972 362.588C493.392 361.6 500.54 360.656 510.102 362.568L511.082 357.665C500.643 355.577 492.792 356.633 486.212 357.646L486.972 362.588ZM510.102 362.568C512.111 362.97 515.841 364.624 520.273 367.733C524.641 370.798 529.5 375.143 533.801 380.708C542.377 391.802 548.724 407.706 544.64 428.126L549.543 429.106C553.959 407.026 547.057 389.68 537.757 377.65C533.121 371.652 527.886 366.967 523.145 363.64C518.467 360.359 514.073 358.263 511.082 357.665L510.102 362.568ZM544.64 428.126C540.17 450.478 549.721 466.531 561.199 478.009C566.915 483.725 573.15 488.355 578.405 492.104C581.062 494 583.411 495.63 585.398 497.108C587.403 498.599 588.848 499.799 589.729 500.783L593.455 497.449C592.21 496.058 590.406 494.602 588.383 493.097C586.343 491.579 583.887 489.873 581.309 488.034C576.096 484.315 570.143 479.882 564.735 474.473C553.963 463.702 545.514 449.254 549.543 429.106L544.64 428.126ZM589.729 500.783C596.667 508.538 610.167 520.211 615.997 525.041L619.187 521.191C613.35 516.355 600.116 504.895 593.455 497.449L589.729 500.783ZM617.305 520.633C615.057 520.892 611.392 521.457 607.613 522.316C603.885 523.164 599.818 524.347 596.907 525.915L599.277 530.317C601.566 529.085 605.082 528.019 608.721 527.191C612.308 526.376 615.793 525.84 617.878 525.6L617.305 520.633ZM596.907 525.915C595.628 526.603 593.382 527.226 590.088 528.003C586.932 528.748 583.013 529.597 578.85 530.773C570.51 533.128 560.813 536.89 552.886 544.289L556.298 547.944C563.371 541.342 572.174 537.854 580.209 535.585C584.233 534.448 587.971 533.64 591.236 532.87C594.364 532.132 597.306 531.379 599.277 530.317L596.907 525.915ZM552.886 544.289C549.132 547.793 545.511 550.568 541.598 554.003C537.802 557.337 534.069 561.025 530.779 565.828C524.164 575.487 519.599 589.268 519.092 613.063L524.091 613.169C524.585 589.965 529.02 577.245 534.904 568.654C537.864 564.332 541.257 560.958 544.898 557.76C548.423 554.665 552.552 551.44 556.298 547.944L552.886 544.289ZM519.092 613.116C519.092 623.941 523.413 637.948 532.007 649.773C540.637 661.648 553.714 671.499 571.295 673.599L571.888 668.634C555.97 666.733 544.046 657.834 536.052 646.834C528.021 635.784 524.092 622.791 524.092 613.116H519.092ZM571.295 673.599C587.809 675.57 593.264 680.392 594.947 684.039C596.677 687.788 595.065 691.58 594.356 692.998L598.828 695.234C599.619 693.652 602.257 687.945 599.487 681.944C596.67 675.84 588.874 670.662 571.888 668.634L571.295 673.599ZM594.356 692.998C594.236 693.238 593.688 694.151 592.688 695.749C591.727 697.284 590.426 699.328 588.888 701.728C585.813 706.526 581.803 712.725 577.69 719.068C569.477 731.734 560.831 745.017 558.472 748.791L562.712 751.441C565.041 747.714 573.645 734.497 581.885 721.788C585.998 715.445 590.015 709.237 593.098 704.426C594.639 702.021 595.951 699.96 596.926 698.403C597.861 696.909 598.573 695.744 598.828 695.234L594.356 692.998ZM558.472 748.791C557.688 750.046 556.799 752.184 555.937 754.629C555.052 757.14 554.125 760.177 553.297 763.362C551.665 769.641 550.323 776.839 550.596 781.755L555.588 781.478C555.361 777.394 556.519 770.842 558.136 764.62C558.933 761.555 559.819 758.655 560.653 756.291C561.509 753.861 562.246 752.186 562.712 751.441L558.472 748.791ZM550.596 781.755C550.852 786.366 552.115 798.966 554.506 812.368C555.702 819.075 557.188 826.023 558.985 832.297C560.772 838.534 562.908 844.259 565.46 848.423L569.723 845.81C567.525 842.224 565.537 837.011 563.792 830.92C562.058 824.865 560.606 818.095 559.428 811.49C557.069 798.266 555.832 785.867 555.588 781.478L550.596 781.755ZM565.46 848.423C564.675 847.142 565.496 846.068 565.517 846.042C565.613 845.919 565.618 845.957 565.335 846.151C564.821 846.503 563.899 847.003 562.549 847.629C559.891 848.862 555.984 850.394 551.408 852.009C542.261 855.234 530.684 858.701 521.563 860.673L522.62 865.56C532 863.532 543.786 859.998 553.07 856.724C557.709 855.088 561.786 853.495 564.653 852.165C566.066 851.51 567.293 850.87 568.159 850.277C568.567 849.998 569.072 849.613 569.456 849.121C569.764 848.727 570.661 847.341 569.723 845.81L565.46 848.423ZM521.669 860.652C504.017 863.678 500.916 865.116 485.592 865.116V870.116C501.467 870.116 505.167 868.554 522.514 865.58L521.669 860.652ZM485.592 865.116C475.857 865.116 456.051 864.639 437.113 864.399C427.668 864.28 418.455 864.22 410.878 864.31C403.381 864.399 397.275 864.635 394.181 865.15L395.003 870.082C397.645 869.642 403.344 869.4 410.938 869.309C418.452 869.22 427.616 869.28 437.049 869.399C455.869 869.637 475.827 870.116 485.592 870.116V865.116ZM394.181 865.15C392.867 865.369 388.853 865.679 383.963 867.626C379.026 869.592 373.165 873.214 367.647 880.045L371.537 883.187C376.477 877.071 381.615 873.943 385.813 872.271C390.059 870.58 393.316 870.363 395.003 870.082L394.181 865.15ZM367.647 880.045C364.976 883.352 362.661 886.524 360.483 889.556C358.294 892.603 356.265 895.478 354.11 898.279C349.834 903.839 345.126 909.022 338.126 914.091L341.058 918.141C348.558 912.71 353.6 907.144 358.073 901.328C360.293 898.442 362.389 895.473 364.544 892.473C366.71 889.458 368.958 886.38 371.537 883.187L367.647 880.045ZM338.126 914.091C330.764 919.422 327.518 921.722 325.057 922.84C322.822 923.856 321.354 923.861 316.945 924.121L317.239 929.112C321.329 928.871 323.861 928.876 327.126 927.392C330.165 926.011 333.92 923.31 341.058 918.141L338.126 914.091ZM316.945 924.121C312.967 924.354 310.083 923.878 307.857 923.03C305.642 922.186 303.929 920.918 302.36 919.348L298.824 922.884C300.754 924.814 303.042 926.546 306.077 927.702C309.1 928.854 312.716 929.378 317.239 929.112L316.945 924.121ZM302.36 919.348C301.711 918.7 300.214 916.611 298.106 913.358C296.068 910.213 293.613 906.225 291.098 902.02C286.06 893.598 280.843 884.402 278.316 879.475L273.867 881.757C276.468 886.828 281.75 896.133 286.806 904.586C289.338 908.819 291.827 912.863 293.91 916.077C295.923 919.184 297.722 921.782 298.824 922.884L302.36 919.348ZM278.316 879.475C268.257 859.861 257.838 840.518 254.328 833.498L249.856 835.734C253.346 842.714 263.926 862.372 273.867 881.757L278.316 879.475ZM254.328 833.498C253.542 831.927 252.313 828.625 250.826 824.256C249.358 819.946 247.693 814.765 246.037 809.547C242.754 799.203 239.458 788.55 237.913 784.688L233.271 786.545C234.726 790.182 237.929 800.529 241.271 811.06C242.928 816.28 244.607 821.505 246.092 825.867C247.558 830.17 248.891 833.806 249.856 835.734L254.328 833.498ZM237.913 784.688C236.393 780.887 233.599 774.79 231.13 769.173C229.883 766.336 228.711 763.604 227.791 761.282C226.849 758.903 226.244 757.127 226.043 756.126L221.14 757.107C221.44 758.605 222.21 760.767 223.142 763.123C224.098 765.534 225.3 768.334 226.553 771.185C229.084 776.943 231.791 782.846 233.271 786.545L237.913 784.688ZM226.043 756.126C225.544 753.628 224.655 749.181 223.444 744.657C222.257 740.219 220.678 735.381 218.701 732.274L214.483 734.958C216.006 737.352 217.427 741.514 218.614 745.95C219.779 750.301 220.64 754.604 221.14 757.107L226.043 756.126ZM218.701 732.274C215.853 727.798 209.774 719.304 207.114 715.646L203.07 718.587C205.743 722.262 211.731 730.634 214.483 734.958L218.701 732.274ZM207.118 718.58C209.288 715.576 214.886 707.395 216.543 699.107L211.64 698.126C210.216 705.25 205.229 712.657 203.065 715.652L207.118 718.58ZM216.543 699.107C221.556 674.044 223.838 662.106 226.011 653.745L221.172 652.487C218.951 661.029 216.628 673.188 211.64 698.126L216.543 699.107ZM226.011 653.745C229.163 641.622 238.874 622.509 249.438 604.76C260.005 587.003 271.117 571.126 276.86 565.384L273.324 561.848C267.093 568.08 255.705 584.453 245.141 602.203C234.573 619.96 224.52 639.61 221.172 652.487L226.011 653.745ZM276.86 565.384C294.717 547.527 299.305 543.74 304.973 537.262L301.21 533.97C295.678 540.292 291.467 543.706 273.324 561.848L276.86 565.384ZM304.973 537.262C308.401 533.345 315.588 526.03 322.389 519.479C325.781 516.211 329.049 513.16 331.676 510.842C332.991 509.681 334.125 508.722 335.023 508.016C335.472 507.663 335.843 507.389 336.134 507.19C336.452 506.974 336.584 506.911 336.577 506.914L334.607 502.318C333.822 502.655 332.851 503.364 331.932 504.085C330.929 504.874 329.716 505.903 328.367 507.094C325.665 509.478 322.34 512.584 318.92 515.878C312.095 522.452 304.783 529.887 301.21 533.97L304.973 537.262ZM336.577 506.914C338.12 506.253 341.235 505.441 345.253 504.34C349.124 503.278 353.624 501.996 357.52 500.437L355.663 495.795C352.06 497.236 347.81 498.454 343.931 499.518C340.199 500.541 336.564 501.48 334.607 502.318L336.577 506.914ZM357.52 500.437C361.49 498.849 368.899 494.747 375.728 490.487C379.167 488.342 382.518 486.119 385.277 484.104C387.961 482.143 390.311 480.219 391.544 478.678L387.64 475.554C386.873 476.513 385.035 478.089 382.328 480.066C379.697 481.988 376.454 484.141 373.081 486.245C366.284 490.485 359.193 494.383 355.663 495.795L357.52 500.437ZM391.544 478.678C393.461 476.282 399.481 469.889 405.785 463.207C411.996 456.623 418.449 449.793 421.012 446.717L417.171 443.516C414.735 446.439 408.437 453.109 402.148 459.776C395.953 466.343 389.723 472.951 387.64 475.554L391.544 478.678ZM421.012 446.717C425.026 441.9 444.707 417.682 454.033 406.192L450.151 403.041C440.809 414.551 421.158 438.732 417.171 443.516L421.012 446.717Z" fill="white"/>
<path d="M156.092 475.116C155.692 467.116 158.926 451.116 160.592 444.116C174.259 441.949 202.892 437.416 208.092 436.616C214.592 435.616 216.092 434.116 222.092 432.616C228.092 431.116 235.092 430.116 245.592 430.116C256.092 430.116 249.592 429.116 268.592 433.116C287.592 437.116 294.092 447.616 296.092 450.616C298.092 453.616 302.092 463.616 303.092 465.616C304.092 467.616 308.092 478.616 310.592 481.616C313.092 484.616 316.092 492.116 321.092 495.116C325.092 497.516 332.758 500.449 336.092 501.616C244.092 580.616 225.592 652.616 221.592 661.116C217.592 669.616 216.092 684.116 213.592 694.616C211.092 705.116 206.092 714.116 202.592 719.616C199.092 725.116 178.592 741.116 142.592 747.116C106.592 753.116 74.5918 740.616 72.0918 739.616C69.5918 738.616 54.0918 730.116 51.0918 725.116C48.0918 720.116 48.5918 713.116 49.5918 707.116C50.5918 701.116 56.0918 689.116 55.5918 679.616C55.0918 670.116 42.0918 661.116 36.5918 655.116C31.0918 649.116 16.0916 634.616 13.0916 629.116C10.0916 623.616 10.0916 616.616 10.5916 613.116C11.0916 609.616 20.0916 600.116 25.0916 598.116C30.0916 596.116 57.5916 583.616 65.0916 579.116C72.5916 574.616 80.5916 562.616 85.0916 558.116C89.5916 553.616 95.5916 550.616 99.5916 549.616C103.592 548.616 103.592 550.616 106.592 553.116C109.592 555.616 111.092 559.116 113.592 562.616C116.092 566.116 117.707 564.44 120.592 563.616C124.092 562.616 136.092 554.116 142.592 547.116C149.092 540.116 167.092 524.116 163.092 516.616C159.092 509.116 156.592 485.116 156.092 475.116Z" fill="#69EC41" fill-opacity="0.5" stroke="white" stroke-width="5"/>
<path d="M152.594 372.615C158.594 388.215 160.427 426.782 160.594 444.115C176.26 441.782 208.292 436.916 211.092 436.116C255.092 420.616 284.092 437.616 290.592 443.616C297.092 449.616 305.092 472.116 309.092 479.616C313.092 487.116 319.592 496.616 332.592 500.116C345.592 503.616 347.592 501.616 363.592 494.616C380.092 492.616 449.092 411.616 450.592 407.616C452.092 403.616 451.592 401.616 449.092 397.116C446.592 392.616 444.592 386.116 441.592 380.616C438.592 375.116 437.092 380.616 432.092 380.616C427.092 380.616 430.092 376.616 430.592 373.116C431.092 369.616 434.592 364.116 437.092 358.116C439.592 352.116 438.592 343.616 437.092 338.116C435.592 332.616 432.592 334.616 426.092 332.616C419.592 330.616 417.092 334.616 411.092 338.116C405.092 341.616 400.092 340.616 394.592 332.616C389.092 324.616 396.092 319.116 402.592 305.616C409.092 292.116 407.592 294.116 406.092 282.616C404.592 271.116 396.092 272.116 387.092 265.116C378.092 258.116 341.092 261.116 369.092 231.116C397.092 201.116 363.592 183.116 360.092 180.116C357.292 177.716 360.092 173.616 356.092 161.616C352.425 151.616 337.792 131.816 308.592 132.616C279.392 133.416 242.092 93.2829 227.092 73.1162C221.925 67.7829 208.792 59.2162 197.592 67.6162C186.392 76.0162 171.26 62.1153 165.095 54.1148C144.592 -6.3834 130.591 3.6178 87.0919 3.61702C28.0907 3.61683 51.5939 67.1149 53.0939 75.1149C54.5939 83.1149 79.5939 150.615 96.5939 201.615C113.594 252.615 145.094 353.115 152.594 372.615Z" fill="#69EC41" fill-opacity="0.5" stroke="white" stroke-width="5"/>
<path d="M183.669 823.522L210.94 822.827L211.352 838.981L207.833 839.071L207.521 826.835L199.763 827.033L199.929 833.511C199.986 835.75 199.209 837.717 197.598 839.412C195.988 841.107 194.063 841.983 191.824 842.04L191.584 842.047C189.158 842.108 187.24 841.17 185.83 839.232C184.613 837.53 183.972 835.412 183.907 832.879L183.669 823.522ZM196.245 827.123L187.288 827.351L187.412 832.23C187.477 834.762 188.214 836.477 189.624 837.375C190.275 837.785 191.026 837.979 191.88 837.958C193.479 837.917 194.663 837.273 195.431 836.026C196.098 834.969 196.41 833.601 196.367 831.921L196.245 827.123ZM211.971 856.986L184.853 869.922L184.751 865.923L192.734 862.038L192.438 850.442L184.273 847.209L184.171 843.21L211.902 854.267L211.971 856.986ZM205.937 855.699L195.996 851.872L196.212 860.349L205.937 855.699ZM212.797 895.61L185.526 896.306L185.426 892.388L197.342 892.083L196.952 876.808L185.036 877.112L184.936 873.194L212.207 872.498L212.307 876.417L200.471 876.719L200.861 891.994L212.697 891.692L212.797 895.61ZM185.689 902.715L212.96 902.02L213.311 915.775L209.792 915.865L209.541 906.028L185.789 906.634L185.689 902.715ZM214.228 951.702L210.709 951.792L210.468 942.355L186.716 942.961L186.616 939.042L210.368 938.436L210.128 928.999L213.646 928.91L214.228 951.702ZM214.78 967.067L187.661 980.003L187.559 976.004L195.543 972.119L195.247 960.523L187.082 957.29L186.98 953.292L214.711 964.348L214.78 967.067ZM208.745 965.781L198.804 961.953L199.021 970.43L208.745 965.781ZM201.39 981.727C205.495 981.622 208.904 982.962 211.615 985.747C214.272 988.454 215.653 991.873 215.758 996.005C215.866 1000.22 214.688 1003.73 212.226 1006.54C209.685 1009.4 206.322 1010.89 202.136 1011C197.951 1011.1 194.517 1009.79 191.833 1007.06C189.175 1004.33 187.793 1000.85 187.686 996.641C187.58 992.509 188.811 989.01 191.379 986.143C193.947 983.304 197.284 981.831 201.39 981.727ZM201.492 985.725C198.479 985.802 196.013 986.879 194.092 988.955C192.198 991.057 191.29 993.615 191.366 996.627C191.444 999.666 192.482 1002.17 194.479 1004.15C196.477 1006.13 198.995 1007.08 202.034 1007C205.073 1006.92 207.54 1005.84 209.434 1003.77C211.329 1001.69 212.237 999.136 212.16 996.097C212.081 993.031 211.043 990.51 209.046 988.534C207.075 986.583 204.557 985.647 201.492 985.725Z" fill="white"/>
<path d="M96.8318 621.176V625.416C93.6851 623.496 90.5651 622.536 87.4718 622.536C84.3785 622.536 81.7918 623.51 79.7118 625.456C77.6318 627.403 76.5918 629.923 76.5918 633.016C76.5918 636.163 77.6585 638.683 79.7918 640.576C81.8451 642.416 84.4585 643.336 87.6318 643.336C90.8318 643.336 94.0051 642.323 97.1518 640.296V644.536C94.1118 646.19 90.8051 647.016 87.2318 647.016C82.5385 647.016 78.8051 645.456 76.0318 642.336C73.6851 639.696 72.5118 636.696 72.5118 633.336C72.5118 629.07 73.9251 625.603 76.7518 622.936C79.6051 620.27 83.1785 618.936 87.4718 618.936C90.1118 618.936 93.2318 619.683 96.8318 621.176ZM114.603 619.176L126.843 646.616H122.843L119.163 638.536H107.563L104.123 646.616H100.123L111.883 619.176H114.603ZM113.163 625.176L109.083 635.016H117.563L113.163 625.176ZM144.436 619.336H148.356L140.516 632.216C140.836 632.216 141.263 632.43 141.796 632.856L142.596 633.496C143.29 634.19 144.076 635.283 144.956 636.776L147.556 641.176L149.116 643.616L151.236 646.616H146.596L142.996 641.016C141.263 638.296 140.316 636.856 140.156 636.696C139.01 635.416 137.53 634.776 135.716 634.776H134.116V646.616H130.196V619.336H134.116V631.256H136.596L137.076 631.336L144.436 619.336ZM179.401 619.336L168.521 632.456L180.121 646.616H175.401L166.121 635.336L156.761 646.616H151.961L163.721 632.456L152.841 619.336H157.561L166.121 629.736L174.681 619.336H179.401ZM205.142 619.336L194.982 647.256C194.396 648.856 193.329 650.403 191.782 651.896C191.196 652.456 190.356 652.803 189.262 652.936C188.836 652.99 188.449 653.016 188.102 653.016C186.396 653.016 185.089 652.563 184.182 651.656V647.336C184.556 647.87 185.076 648.323 185.742 648.696C186.409 649.07 187.062 649.256 187.702 649.256C189.249 649.256 190.236 648.776 190.662 647.816L191.182 646.976C191.529 646.416 191.809 645.843 192.022 645.256L180.982 619.336H184.902L193.862 640.776L201.302 619.336H205.142Z" fill="white"/>
<path d="M201.4 274.72V302H197.48V280.72L189 291.28H188.36L179.96 280.72L179.88 302H175.96V274.72H179.64L188.68 285.92L197.72 274.72H201.4ZM219.55 274.56L231.79 302H227.79L224.11 293.92H212.51L209.07 302H205.07L216.83 274.56H219.55ZM218.11 280.56L214.03 290.4H222.51L218.11 280.56ZM247.623 268H251.823L247.223 273.8H244.623L247.623 268ZM235.063 274.72H238.743V296.16L256.823 274.72H260.343V302H256.503V280.48L238.423 302H235.063V274.72ZM292.587 274.72H296.507L288.667 287.6C288.987 287.6 289.413 287.813 289.947 288.24L290.747 288.88C291.44 289.573 292.227 290.667 293.107 292.16L295.707 296.56L297.267 299L299.387 302H294.747L291.147 296.4C289.413 293.68 288.467 292.24 288.307 292.08C287.16 290.8 285.68 290.16 283.867 290.16H282.267V302H278.347V274.72H282.267V286.64H284.747L285.227 286.72L292.587 274.72ZM314.511 274.56L326.751 302H322.751L319.071 293.92H307.471L304.031 302H300.031L311.791 274.56H314.511ZM313.071 280.56L308.991 290.4H317.471L313.071 280.56ZM328.824 288.32C328.824 284.213 330.251 280.84 333.104 278.2C335.878 275.613 339.331 274.32 343.464 274.32C347.678 274.32 351.158 275.587 353.904 278.12C356.704 280.733 358.104 284.133 358.104 288.32C358.104 292.507 356.704 295.907 353.904 298.52C351.104 301.107 347.598 302.4 343.384 302.4C339.251 302.4 335.784 301.08 332.984 298.44C330.211 295.8 328.824 292.427 328.824 288.32ZM332.824 288.32C332.824 291.333 333.838 293.827 335.864 295.8C337.918 297.747 340.451 298.72 343.464 298.72C346.504 298.72 349.038 297.747 351.064 295.8C353.091 293.853 354.104 291.36 354.104 288.32C354.104 285.28 353.091 282.787 351.064 280.84C349.038 278.893 346.504 277.92 343.464 277.92C340.398 277.92 337.851 278.893 335.824 280.84C333.824 282.76 332.824 285.253 332.824 288.32Z" fill="white"/>
<path d="M296.24 406.28L302.36 420H300.36L298.52 415.96H292.72L291 420H289L294.88 406.28H296.24ZM295.52 409.28L293.48 414.2H297.72L295.52 409.28ZM304.277 407.28C306.09 406.533 307.65 406.16 308.957 406.16C311.09 406.16 312.863 406.82 314.277 408.14C315.717 409.5 316.437 411.24 316.437 413.36C316.437 415.053 315.85 416.553 314.677 417.86C313.277 419.42 311.41 420.2 309.077 420.2C307.263 420.2 305.61 419.787 304.117 418.96V416.84C305.783 417.853 307.37 418.36 308.877 418.36C310.317 418.36 311.523 417.98 312.497 417.22C313.483 416.447 314.103 415.36 314.357 413.96H308.357V412.24H314.277C314.077 410.88 313.477 409.82 312.477 409.06C311.53 408.327 310.357 407.96 308.957 407.96C307.49 407.96 305.93 408.44 304.277 409.4V407.28ZM320.192 406.36H324.472C325.765 406.36 326.799 406.687 327.572 407.34C328.385 408.033 328.792 409.013 328.792 410.28C328.792 411.573 328.332 412.547 327.412 413.2C326.599 413.787 325.525 414.08 324.192 414.08H322.152V420H320.192V406.36ZM322.152 408.12V412.32H324.392C325.112 412.32 325.692 412.14 326.132 411.78C326.572 411.42 326.792 410.893 326.792 410.2C326.792 408.813 326.019 408.12 324.472 408.12H322.152ZM330.799 413.16C330.799 411.107 331.512 409.42 332.939 408.1C334.326 406.807 336.052 406.16 338.119 406.16C340.226 406.16 341.966 406.793 343.339 408.06C344.739 409.367 345.439 411.067 345.439 413.16C345.439 415.253 344.739 416.953 343.339 418.26C341.939 419.553 340.186 420.2 338.079 420.2C336.012 420.2 334.279 419.54 332.879 418.22C331.492 416.9 330.799 415.213 330.799 413.16ZM332.799 413.16C332.799 414.667 333.306 415.913 334.319 416.9C335.346 417.873 336.612 418.36 338.119 418.36C339.639 418.36 340.906 417.873 341.919 416.9C342.932 415.927 343.439 414.68 343.439 413.16C343.439 411.64 342.932 410.393 341.919 409.42C340.906 408.447 339.639 407.96 338.119 407.96C336.586 407.96 335.312 408.447 334.299 409.42C333.299 410.38 332.799 411.627 332.799 413.16ZM359.873 406.36V420H357.913V408.12H350.393V420H348.513V406.36H359.873ZM362.908 413.16C362.908 411.107 363.622 409.42 365.048 408.1C366.435 406.807 368.162 406.16 370.228 406.16C372.335 406.16 374.075 406.793 375.448 408.06C376.848 409.367 377.548 411.067 377.548 413.16C377.548 415.253 376.848 416.953 375.448 418.26C374.048 419.553 372.295 420.2 370.188 420.2C368.122 420.2 366.388 419.54 364.988 418.22C363.602 416.9 362.908 415.213 362.908 413.16ZM364.908 413.16C364.908 414.667 365.415 415.913 366.428 416.9C367.455 417.873 368.722 418.36 370.228 418.36C371.748 418.36 373.015 417.873 374.028 416.9C375.042 415.927 375.548 414.68 375.548 413.16C375.548 411.64 375.042 410.393 374.028 409.42C373.015 408.447 371.748 407.96 370.228 407.96C368.695 407.96 367.422 408.447 366.408 409.42C365.408 410.38 364.908 411.627 364.908 413.16ZM381.422 406.36H385.702C386.996 406.36 388.029 406.687 388.802 407.34C389.616 408.033 390.022 409.013 390.022 410.28C390.022 411.573 389.562 412.547 388.642 413.2C387.829 413.787 386.756 414.08 385.422 414.08H383.382V420H381.422V406.36ZM383.382 408.12V412.32H385.622C386.342 412.32 386.922 412.14 387.362 411.78C387.802 411.42 388.022 410.893 388.022 410.2C388.022 408.813 387.249 408.12 385.702 408.12H383.382ZM402.869 406.36V408.12H398.149V420H396.189V408.12H391.469V406.36H402.869Z" fill="white"/>
<path d="M477.92 1505.16C477.92 1503.11 478.633 1501.42 480.06 1500.1C481.447 1498.81 483.173 1498.16 485.24 1498.16C487.347 1498.16 489.087 1498.79 490.46 1500.06C491.86 1501.37 492.56 1503.07 492.56 1505.16C492.56 1507.25 491.86 1508.95 490.46 1510.26C489.06 1511.55 487.307 1512.2 485.2 1512.2C483.133 1512.2 481.4 1511.54 480 1510.22C478.613 1508.9 477.92 1507.21 477.92 1505.16ZM479.92 1505.16C479.92 1506.67 480.427 1507.91 481.44 1508.9C482.467 1509.87 483.733 1510.36 485.24 1510.36C486.76 1510.36 488.027 1509.87 489.04 1508.9C490.053 1507.93 490.56 1506.68 490.56 1505.16C490.56 1503.64 490.053 1502.39 489.04 1501.42C488.027 1500.45 486.76 1499.96 485.24 1499.96C483.707 1499.96 482.433 1500.45 481.42 1501.42C480.42 1502.38 479.92 1503.63 479.92 1505.16ZM501.154 1498.28L507.234 1512H505.034L500.434 1501.28L496.194 1512H494.194L499.794 1498.28H501.154ZM522.035 1510.24H523.955V1514.16H522.275V1512H510.115V1514.2H508.595V1510.24H510.355L515.435 1498.28H516.795L522.035 1510.24ZM512.355 1510.24H519.995L516.075 1501.28L512.355 1510.24ZM542.276 1498.36V1500.12H537.556V1512H535.596V1500.12H530.876V1498.36H542.276ZM549.963 1498.28L556.083 1512H554.083L552.243 1507.96H546.443L544.723 1512H542.723L548.603 1498.28H549.963ZM549.243 1501.28L547.203 1506.2H551.443L549.243 1501.28ZM568.279 1498.36L563.199 1512.32C562.906 1513.12 562.373 1513.89 561.599 1514.64C561.306 1514.92 560.886 1515.09 560.339 1515.16C560.126 1515.19 559.933 1515.2 559.759 1515.2C558.906 1515.2 558.253 1514.97 557.799 1514.52V1512.36C557.986 1512.63 558.246 1512.85 558.579 1513.04C558.913 1513.23 559.239 1513.32 559.559 1513.32C560.333 1513.32 560.826 1513.08 561.039 1512.6L561.299 1512.18C561.473 1511.9 561.613 1511.61 561.719 1511.32L556.199 1498.36H558.159L562.639 1509.08L566.359 1498.36H568.279ZM581.682 1498.36V1512H579.722V1506.04H572.082V1512H570.122V1498.36H572.082V1504.28H579.722V1498.36H581.682Z" fill="white"/>
<path d="M248.112 689.336V692.856H238.672V716.616H234.752V692.856H225.312V689.336H248.112ZM276.526 689.336L265.646 702.456L277.246 716.616H272.526L263.246 705.336L253.886 716.616H249.086L260.846 702.456L249.966 689.336H254.686L263.246 699.736L271.806 689.336H276.526ZM296.587 689.336V692.856H285.067V701.096H296.187V704.616H285.067V713.096H296.987V716.616H281.147V689.336H296.587ZM325.713 689.336V716.616H321.793V692.856H306.753V716.616H302.993V689.336H325.713ZM347.303 689.336H351.223L343.383 702.216C343.703 702.216 344.13 702.43 344.663 702.856L345.463 703.496C346.157 704.19 346.943 705.283 347.823 706.776L350.423 711.176L351.983 713.616L354.103 716.616H349.463L345.863 711.016C344.13 708.296 343.183 706.856 343.023 706.696C341.877 705.416 340.397 704.776 338.583 704.776H336.983V716.616H333.063V689.336H336.983V701.256H339.463L339.943 701.336L347.303 689.336ZM369.228 689.176L381.468 716.616H377.468L373.788 708.536H362.188L358.748 716.616H354.748L366.508 689.176H369.228ZM367.788 695.176L363.708 705.016H372.188L367.788 695.176ZM407.941 691.176V695.416C404.795 693.496 401.675 692.536 398.581 692.536C395.488 692.536 392.901 693.51 390.821 695.456C388.741 697.403 387.701 699.923 387.701 703.016C387.701 706.163 388.768 708.683 390.901 710.576C392.955 712.416 395.568 713.336 398.741 713.336C401.941 713.336 405.115 712.323 408.261 710.296V714.536C405.221 716.19 401.915 717.016 398.341 717.016C393.648 717.016 389.915 715.456 387.141 712.336C384.795 709.696 383.621 706.696 383.621 703.336C383.621 699.07 385.035 695.603 387.861 692.936C390.715 690.27 394.288 688.936 398.581 688.936C401.221 688.936 404.341 689.683 407.941 691.176ZM437.472 691.176V695.416C434.326 693.496 431.206 692.536 428.112 692.536C425.019 692.536 422.432 693.51 420.352 695.456C418.272 697.403 417.232 699.923 417.232 703.016C417.232 706.163 418.299 708.683 420.432 710.576C422.486 712.416 425.099 713.336 428.272 713.336C431.472 713.336 434.646 712.323 437.792 710.296V714.536C434.752 716.19 431.446 717.016 427.872 717.016C423.179 717.016 419.446 715.456 416.672 712.336C414.326 709.696 413.152 706.696 413.152 703.336C413.152 699.07 414.566 695.603 417.392 692.936C420.246 690.27 423.819 688.936 428.112 688.936C430.752 688.936 433.872 689.683 437.472 691.176ZM455.244 689.176L467.484 716.616H463.484L459.804 708.536H448.204L444.764 716.616H440.764L452.524 689.176H455.244ZM453.804 695.176L449.724 705.016H458.204L453.804 695.176ZM491.237 689.336V692.856H481.797V716.616H477.877V692.856H468.437V689.336H491.237ZM497.171 689.336H505.731C508.318 689.336 510.384 689.99 511.931 691.296C513.558 692.683 514.371 694.643 514.371 697.176C514.371 699.763 513.451 701.71 511.611 703.016C509.984 704.19 507.838 704.776 505.171 704.776H501.091V716.616H497.171V689.336ZM501.091 692.856V701.256H505.571C507.011 701.256 508.171 700.896 509.051 700.176C509.931 699.456 510.371 698.403 510.371 697.016C510.371 694.243 508.824 692.856 505.731 692.856H501.091ZM519.585 689.336H523.265V710.776L541.345 689.336H544.865V716.616H541.025V695.096L522.945 716.616H519.585V689.336Z" fill="white"/>
<path d="M642.752 669.336V696.616H638.832V672.856H623.792V696.616H620.032V669.336H642.752ZM661.462 669.176L673.702 696.616H669.702L666.022 688.536H654.422L650.982 696.616H646.982L658.742 669.176H661.462ZM660.022 675.176L655.942 685.016H664.422L660.022 675.176ZM691.296 669.336H695.216L687.376 682.216C687.696 682.216 688.122 682.43 688.656 682.856L689.456 683.496C690.149 684.19 690.936 685.283 691.816 686.776L694.416 691.176L695.976 693.616L698.096 696.616H693.456L689.856 691.016C688.122 688.296 687.176 686.856 687.016 686.696C685.869 685.416 684.389 684.776 682.576 684.776H680.976V696.616H677.056V669.336H680.976V681.256H683.456L683.936 681.336L691.296 669.336ZM713.22 669.176L725.38 696.616H720.98L711.78 675.176L703.3 696.616H699.3L710.5 669.176H713.22ZM728.822 682.936C728.822 678.83 730.249 675.456 733.102 672.816C735.876 670.23 739.329 668.936 743.462 668.936C747.676 668.936 751.156 670.203 753.902 672.736C756.702 675.35 758.102 678.75 758.102 682.936C758.102 687.123 756.702 690.523 753.902 693.136C751.102 695.723 747.596 697.016 743.382 697.016C739.249 697.016 735.782 695.696 732.982 693.056C730.209 690.416 728.822 687.043 728.822 682.936ZM732.822 682.936C732.822 685.95 733.836 688.443 735.862 690.416C737.916 692.363 740.449 693.336 743.462 693.336C746.502 693.336 749.036 692.363 751.062 690.416C753.089 688.47 754.102 685.976 754.102 682.936C754.102 679.896 753.089 677.403 751.062 675.456C749.036 673.51 746.502 672.536 743.462 672.536C740.396 672.536 737.849 673.51 735.822 675.456C733.822 677.376 732.822 679.87 732.822 682.936ZM778.171 669.336H782.091L774.251 682.216C774.571 682.216 774.997 682.43 775.531 682.856L776.331 683.496C777.024 684.19 777.811 685.283 778.691 686.776L781.291 691.176L782.851 693.616L784.971 696.616H780.331L776.731 691.016C774.997 688.296 774.051 686.856 773.891 686.696C772.744 685.416 771.264 684.776 769.451 684.776H767.851V696.616H763.931V669.336H767.851V681.256H770.331L770.811 681.336L778.171 669.336Z" fill="white"/>
<path d="M308.672 1088.94H317.872V1065.34H321.872V1092.62H291.632V1065.34H295.552V1088.94H304.672V1065.34H308.672V1088.94ZM330.038 1065.34H338.598C341.185 1065.34 343.251 1065.99 344.798 1067.3C346.425 1068.68 347.238 1070.64 347.238 1073.18C347.238 1075.76 346.318 1077.71 344.478 1079.02C342.851 1080.19 340.705 1080.78 338.038 1080.78H333.958V1092.62H330.038V1065.34ZM333.958 1068.86V1077.26H338.438C339.878 1077.26 341.038 1076.9 341.918 1076.18C342.798 1075.46 343.238 1074.4 343.238 1073.02C343.238 1070.24 341.691 1068.86 338.598 1068.86H333.958ZM352.452 1065.34H356.132V1086.78L374.212 1065.34H377.732V1092.62H373.892V1071.1L355.812 1092.62H352.452V1065.34ZM419.324 1067.18V1071.42C416.177 1069.5 413.057 1068.54 409.964 1068.54C406.871 1068.54 404.284 1069.51 402.204 1071.46C400.124 1073.4 399.084 1075.92 399.084 1079.02C399.084 1082.16 400.151 1084.68 402.284 1086.58C404.337 1088.42 406.951 1089.34 410.124 1089.34C413.324 1089.34 416.497 1088.32 419.644 1086.3V1090.54C416.604 1092.19 413.297 1093.02 409.724 1093.02C405.031 1093.02 401.297 1091.46 398.524 1088.34C396.177 1085.7 395.004 1082.7 395.004 1079.34C395.004 1075.07 396.417 1071.6 399.244 1068.94C402.097 1066.27 405.671 1064.94 409.964 1064.94C412.604 1064.94 415.724 1065.68 419.324 1067.18ZM446.775 1065.34L436.615 1093.26C436.029 1094.86 434.962 1096.4 433.415 1097.9C432.829 1098.46 431.989 1098.8 430.895 1098.94C430.469 1098.99 430.082 1099.02 429.735 1099.02C428.029 1099.02 426.722 1098.56 425.815 1097.66V1093.34C426.189 1093.87 426.709 1094.32 427.375 1094.7C428.042 1095.07 428.695 1095.26 429.335 1095.26C430.882 1095.26 431.869 1094.78 432.295 1093.82L432.815 1092.98C433.162 1092.42 433.442 1091.84 433.655 1091.26L422.615 1065.34H426.535L435.495 1086.78L442.935 1065.34H446.775ZM473.58 1065.34V1092.62H469.66V1080.7H454.38V1092.62H450.46V1065.34H454.38V1077.18H469.66V1065.34H473.58ZM500.471 1065.34V1068.86H491.031V1092.62H487.111V1068.86H477.671V1065.34H500.471ZM503.205 1078.94C503.205 1074.83 504.632 1071.46 507.485 1068.82C510.259 1066.23 513.712 1064.94 517.845 1064.94C522.059 1064.94 525.539 1066.2 528.285 1068.74C531.085 1071.35 532.485 1074.75 532.485 1078.94C532.485 1083.12 531.085 1086.52 528.285 1089.14C525.485 1091.72 521.979 1093.02 517.765 1093.02C513.632 1093.02 510.165 1091.7 507.365 1089.06C504.592 1086.42 503.205 1083.04 503.205 1078.94ZM507.205 1078.94C507.205 1081.95 508.219 1084.44 510.245 1086.42C512.299 1088.36 514.832 1089.34 517.845 1089.34C520.885 1089.34 523.419 1088.36 525.445 1086.42C527.472 1084.47 528.485 1081.98 528.485 1078.94C528.485 1075.9 527.472 1073.4 525.445 1071.46C523.419 1069.51 520.885 1068.54 517.845 1068.54C514.779 1068.54 512.232 1069.51 510.205 1071.46C508.205 1073.38 507.205 1075.87 507.205 1078.94ZM561.353 1065.34V1092.62H557.433V1080.7H542.153V1092.62H538.233V1065.34H542.153V1077.18H557.433V1065.34H561.353Z" fill="white"/>
<path d="M527.952 1175.34H531.872L524.032 1188.22C524.352 1188.22 524.778 1188.43 525.312 1188.86L526.112 1189.5C526.805 1190.19 527.592 1191.28 528.472 1192.78L531.072 1197.18L532.632 1199.62L534.752 1202.62H530.112L526.512 1197.02C524.778 1194.3 523.832 1192.86 523.672 1192.7C522.525 1191.42 521.045 1190.78 519.232 1190.78H517.632V1202.62H513.712V1175.34H517.632V1187.26H520.112L520.592 1187.34L527.952 1175.34ZM537.236 1188.94C537.236 1184.83 538.663 1181.46 541.516 1178.82C544.29 1176.23 547.743 1174.94 551.876 1174.94C556.09 1174.94 559.57 1176.2 562.316 1178.74C565.116 1181.35 566.516 1184.75 566.516 1188.94C566.516 1193.12 565.116 1196.52 562.316 1199.14C559.516 1201.72 556.01 1203.02 551.796 1203.02C547.663 1203.02 544.196 1201.7 541.396 1199.06C538.623 1196.42 537.236 1193.04 537.236 1188.94ZM541.236 1188.94C541.236 1191.95 542.25 1194.44 544.276 1196.42C546.33 1198.36 548.863 1199.34 551.876 1199.34C554.916 1199.34 557.45 1198.36 559.476 1196.42C561.503 1194.47 562.516 1191.98 562.516 1188.94C562.516 1185.9 561.503 1183.4 559.476 1181.46C557.45 1179.51 554.916 1178.54 551.876 1178.54C548.81 1178.54 546.263 1179.51 544.236 1181.46C542.236 1183.38 541.236 1185.87 541.236 1188.94ZM598.186 1175.34H602.106L594.266 1188.22C594.586 1188.22 595.013 1188.43 595.546 1188.86L596.346 1189.5C597.04 1190.19 597.826 1191.28 598.706 1192.78L601.306 1197.18L602.866 1199.62L604.986 1202.62H600.346L596.746 1197.02C595.013 1194.3 594.066 1192.86 593.906 1192.7C592.76 1191.42 591.28 1190.78 589.466 1190.78H587.866V1202.62H583.946V1175.34H587.866V1187.26H590.346L590.826 1187.34L598.186 1175.34ZM624.111 1175.34V1178.86H612.591V1187.1H623.711V1190.62H612.591V1199.1H624.511V1202.62H608.671V1175.34H624.111ZM628.916 1188.94C628.916 1184.83 630.343 1181.46 633.196 1178.82C635.97 1176.23 639.423 1174.94 643.556 1174.94C647.77 1174.94 651.25 1176.2 653.996 1178.74C656.796 1181.35 658.196 1184.75 658.196 1188.94C658.196 1193.12 656.796 1196.52 653.996 1199.14C651.196 1201.72 647.69 1203.02 643.476 1203.02C639.343 1203.02 635.876 1201.7 633.076 1199.06C630.303 1196.42 628.916 1193.04 628.916 1188.94ZM632.916 1188.94C632.916 1191.95 633.93 1194.44 635.956 1196.42C638.01 1198.36 640.543 1199.34 643.556 1199.34C646.596 1199.34 649.13 1198.36 651.156 1196.42C653.183 1194.47 654.196 1191.98 654.196 1188.94C654.196 1185.9 653.183 1183.4 651.156 1181.46C649.13 1179.51 646.596 1178.54 643.556 1178.54C640.49 1178.54 637.943 1179.51 635.916 1181.46C633.916 1183.38 632.916 1185.87 632.916 1188.94Z" fill="white"/>
<path d="M87.9518 1215.34H91.8718L84.0318 1228.22C84.3518 1228.22 84.7785 1228.43 85.3118 1228.86L86.1118 1229.5C86.8051 1230.19 87.5918 1231.28 88.4718 1232.78L91.0718 1237.18L92.6318 1239.62L94.7518 1242.62H90.1118L86.5118 1237.02C84.7785 1234.3 83.8318 1232.86 83.6718 1232.7C82.5251 1231.42 81.0451 1230.78 79.2318 1230.78H77.6318V1242.62H73.7118V1215.34H77.6318V1227.26H80.1118L80.5918 1227.34L87.9518 1215.34ZM109.876 1215.18L122.116 1242.62H118.116L114.436 1234.54H102.836L99.3965 1242.62H95.3965L107.156 1215.18H109.876ZM108.436 1221.18L104.356 1231.02H112.836L108.436 1221.18ZM150.75 1215.34V1242.62H146.83V1221.34L138.35 1231.9H137.71L129.31 1221.34L129.23 1242.62H125.31V1215.34H128.99L138.03 1226.54L147.07 1215.34H150.75ZM168.9 1215.18L181.14 1242.62H177.14L173.46 1234.54H161.86L158.42 1242.62H154.42L166.18 1215.18H168.9ZM167.46 1221.18L163.38 1231.02H171.86L167.46 1221.18ZM195.853 1215.18L208.013 1242.62H203.613L194.413 1221.18L185.933 1242.62H181.933L193.133 1215.18H195.853ZM224.095 1215.18L236.335 1242.62H232.335L228.655 1234.54H217.055L213.615 1242.62H209.615L221.375 1215.18H224.095ZM222.655 1221.18L218.575 1231.02H227.055L222.655 1221.18Z" fill="white"/>
<path d="M358.952 1347.34H362.872L355.032 1360.22C355.352 1360.22 355.778 1360.43 356.312 1360.86L357.112 1361.5C357.805 1362.19 358.592 1363.28 359.472 1364.78L362.072 1369.18L363.632 1371.62L365.752 1374.62H361.112L357.512 1369.02C355.778 1366.3 354.832 1364.86 354.672 1364.7C353.525 1363.42 352.045 1362.78 350.232 1362.78H348.632V1374.62H344.712V1347.34H348.632V1359.26H351.112L351.592 1359.34L358.952 1347.34ZM380.876 1347.18L393.116 1374.62H389.116L385.436 1366.54H373.836L370.396 1374.62H366.396L378.156 1347.18H380.876ZM379.436 1353.18L375.356 1363.02H383.836L379.436 1353.18ZM416.87 1347.34V1350.86H407.43V1374.62H403.51V1350.86H394.07V1347.34H416.87ZM441.924 1347.34L431.764 1375.26C431.177 1376.86 430.11 1378.4 428.564 1379.9C427.977 1380.46 427.137 1380.8 426.044 1380.94C425.617 1380.99 425.23 1381.02 424.884 1381.02C423.177 1381.02 421.87 1380.56 420.964 1379.66V1375.34C421.337 1375.87 421.857 1376.32 422.524 1376.7C423.19 1377.07 423.844 1377.26 424.484 1377.26C426.03 1377.26 427.017 1376.78 427.444 1375.82L427.964 1374.98C428.31 1374.42 428.59 1373.84 428.804 1373.26L417.764 1347.34H421.684L430.644 1368.78L438.084 1347.34H441.924Z" fill="white"/>
<path d="M226.872 1374.78L199.592 1374.78L199.592 1370.86L223.352 1370.86L223.352 1355.82L199.592 1355.82L199.592 1352.06L226.872 1352.06L226.872 1374.78ZM227.032 1393.49L199.592 1405.73L199.592 1401.73L207.672 1398.05L207.672 1386.45L199.592 1383.01L199.592 1379.01L227.032 1390.77L227.032 1393.49ZM221.032 1392.05L211.192 1387.97L211.192 1396.45L221.032 1392.05ZM226.872 1429.48L223.352 1429.48L223.352 1420.04L199.592 1420.04L199.592 1416.12L223.352 1416.12L223.352 1406.68L226.872 1406.68L226.872 1429.48ZM213.272 1432.21C217.378 1432.21 220.752 1433.64 223.392 1436.49C225.978 1439.27 227.272 1442.72 227.272 1446.85C227.272 1451.07 226.005 1454.55 223.472 1457.29C220.858 1460.09 217.458 1461.49 213.272 1461.49C209.085 1461.49 205.685 1460.09 203.072 1457.29C200.485 1454.49 199.192 1450.99 199.192 1446.77C199.192 1442.64 200.512 1439.17 203.152 1436.37C205.792 1433.6 209.165 1432.21 213.272 1432.21ZM213.272 1436.21C210.258 1436.21 207.765 1437.23 205.792 1439.25C203.845 1441.31 202.872 1443.84 202.872 1446.85C202.872 1449.89 203.845 1452.43 205.792 1454.45C207.738 1456.48 210.232 1457.49 213.272 1457.49C216.312 1457.49 218.805 1456.48 220.752 1454.45C222.698 1452.43 223.672 1449.89 223.672 1446.85C223.672 1443.79 222.698 1441.24 220.752 1439.21C218.832 1437.21 216.338 1436.21 213.272 1436.21ZM226.872 1490.36L199.592 1490.36L199.592 1486.44L211.512 1486.44L211.512 1471.16L199.592 1471.16L199.592 1467.24L226.872 1467.24L226.872 1471.16L215.032 1471.16L215.032 1486.44L226.872 1486.44L226.872 1490.36ZM199.592 1496.77L226.872 1496.77L226.872 1510.53L223.352 1510.53L223.352 1500.69L199.592 1500.69L199.592 1496.77Z" fill="white"/>
<path d="M601.632 1385.34H610.192C612.778 1385.34 614.845 1385.99 616.392 1387.3C618.018 1388.68 618.832 1390.64 618.832 1393.18C618.832 1395.76 617.912 1397.71 616.072 1399.02C614.445 1400.19 612.298 1400.78 609.632 1400.78H605.552V1412.62H601.632V1385.34ZM605.552 1388.86V1397.26H610.032C611.472 1397.26 612.632 1396.9 613.512 1396.18C614.392 1395.46 614.832 1394.4 614.832 1393.02C614.832 1390.24 613.285 1388.86 610.192 1388.86H605.552ZM635.486 1385.18L647.726 1412.62H643.726L640.046 1404.54H628.446L625.006 1412.62H621.006L632.766 1385.18H635.486ZM634.046 1391.18L629.966 1401.02H638.446L634.046 1391.18ZM674.199 1387.18V1391.42C671.052 1389.5 667.932 1388.54 664.839 1388.54C661.746 1388.54 659.159 1389.51 657.079 1391.46C654.999 1393.4 653.959 1395.92 653.959 1399.02C653.959 1402.16 655.026 1404.68 657.159 1406.58C659.212 1408.42 661.826 1409.34 664.999 1409.34C668.199 1409.34 671.372 1408.32 674.519 1406.3V1410.54C671.479 1412.19 668.172 1413.02 664.599 1413.02C659.906 1413.02 656.172 1411.46 653.399 1408.34C651.052 1405.7 649.879 1402.7 649.879 1399.34C649.879 1395.07 651.292 1391.6 654.119 1388.94C656.972 1386.27 660.546 1384.94 664.839 1384.94C667.479 1384.94 670.599 1385.68 674.199 1387.18ZM703.73 1387.18V1391.42C700.584 1389.5 697.464 1388.54 694.37 1388.54C691.277 1388.54 688.69 1389.51 686.61 1391.46C684.53 1393.4 683.49 1395.92 683.49 1399.02C683.49 1402.16 684.557 1404.68 686.69 1406.58C688.744 1408.42 691.357 1409.34 694.53 1409.34C697.73 1409.34 700.904 1408.32 704.05 1406.3V1410.54C701.01 1412.19 697.704 1413.02 694.13 1413.02C689.437 1413.02 685.704 1411.46 682.93 1408.34C680.584 1405.7 679.41 1402.7 679.41 1399.34C679.41 1395.07 680.824 1391.6 683.65 1388.94C686.504 1386.27 690.077 1384.94 694.37 1384.94C697.01 1384.94 700.13 1385.68 703.73 1387.18ZM721.501 1385.18L733.741 1412.62H729.741L726.061 1404.54H714.461L711.021 1412.62H707.021L718.781 1385.18H721.501ZM720.061 1391.18L715.981 1401.02H724.461L720.061 1391.18ZM761.975 1409.1H765.815V1416.94H762.455V1412.62H738.135V1417.02H735.095V1409.1H738.615L748.775 1385.18H751.495L761.975 1409.1ZM742.615 1409.1H757.895L750.055 1391.18L742.615 1409.1ZM781.814 1385.18L794.054 1412.62H790.054L786.374 1404.54H774.774L771.334 1412.62H767.334L779.094 1385.18H781.814ZM780.374 1391.18L776.294 1401.02H784.774L780.374 1391.18Z" fill="white"/>
<path d="M543.632 1622.62V1595.34H551.552C553.925 1595.34 555.872 1595.9 557.392 1597.02C559.098 1598.27 559.952 1600.03 559.952 1602.3C559.952 1604.94 558.565 1606.88 555.792 1608.14C557.738 1608.54 559.298 1609.34 560.472 1610.54C561.725 1611.82 562.352 1613.42 562.352 1615.34C562.352 1617.74 561.352 1619.59 559.352 1620.9C557.645 1622.04 555.525 1622.62 552.992 1622.62H543.632ZM547.552 1598.86V1607.02H550.112C553.952 1607.02 555.872 1605.55 555.872 1602.62C555.872 1600.11 554.298 1598.86 551.152 1598.86H547.552ZM547.552 1610.54V1619.1H552.432C554.965 1619.1 556.698 1618.4 557.632 1617.02C558.058 1616.38 558.272 1615.63 558.272 1614.78C558.272 1611.95 556.272 1610.54 552.272 1610.54H547.552ZM567.147 1595.34H570.827V1616.78L588.907 1595.34H592.427V1622.62H588.587V1601.1L570.507 1622.62H567.147V1595.34ZM597.858 1602.38V1595.34H601.698V1602.06C601.698 1604.08 602.591 1605.43 604.378 1606.1C605.444 1606.5 607.218 1606.7 609.698 1606.7H612.578V1595.34H616.498V1622.62H612.578V1610.06H607.698C604.284 1610.06 601.884 1609.62 600.498 1608.74C598.738 1607.62 597.858 1605.5 597.858 1602.38ZM624.491 1595.34H628.171V1616.78L646.251 1595.34H649.771V1622.62H645.931V1601.1L627.851 1622.62H624.491V1595.34ZM677.041 1595.34V1598.86H667.601V1622.62H663.681V1598.86H654.241V1595.34H677.041Z" fill="white"/>
<path d="M261.632 1961.34H270.192C272.778 1961.34 274.845 1961.99 276.392 1963.3C278.018 1964.68 278.832 1966.64 278.832 1969.18C278.832 1971.76 277.912 1973.71 276.072 1975.02C274.445 1976.19 272.298 1976.78 269.632 1976.78H265.552V1988.62H261.632V1961.34ZM265.552 1964.86V1973.26H270.032C271.472 1973.26 272.632 1972.9 273.512 1972.18C274.392 1971.46 274.832 1970.4 274.832 1969.02C274.832 1966.24 273.285 1964.86 270.192 1964.86H265.552ZM295.486 1961.18L307.726 1988.62H303.726L300.046 1980.54H288.446L285.006 1988.62H281.006L292.766 1961.18H295.486ZM294.046 1967.18L289.966 1977.02H298.446L294.046 1967.18ZM310.999 1988.62V1961.34H318.919C321.292 1961.34 323.239 1961.9 324.759 1963.02C326.466 1964.27 327.319 1966.03 327.319 1968.3C327.319 1970.94 325.932 1972.88 323.159 1974.14C325.106 1974.54 326.666 1975.34 327.839 1976.54C329.092 1977.82 329.719 1979.42 329.719 1981.34C329.719 1983.74 328.719 1985.59 326.719 1986.9C325.012 1988.04 322.892 1988.62 320.359 1988.62H310.999ZM314.919 1964.86V1973.02H317.479C321.319 1973.02 323.239 1971.55 323.239 1968.62C323.239 1966.11 321.666 1964.86 318.519 1964.86H314.919ZM314.919 1976.54V1985.1H319.799C322.332 1985.1 324.066 1984.4 324.999 1983.02C325.426 1982.38 325.639 1981.63 325.639 1980.78C325.639 1977.95 323.639 1976.54 319.639 1976.54H314.919ZM345.955 1961.18L358.195 1988.62H354.195L350.515 1980.54H338.915L335.475 1988.62H331.475L343.235 1961.18H345.955ZM344.515 1967.18L340.435 1977.02H348.915L344.515 1967.18ZM361.468 1961.34H365.148V1982.78L383.228 1961.34H386.748V1988.62H382.908V1967.1L364.828 1988.62H361.468V1961.34Z" fill="white"/>
<path d="M226.787 1625.03L227.653 1628.86L213.359 1624.06C213.429 1624.37 213.316 1624.83 213.017 1625.45L212.57 1626.37C212.047 1627.2 211.155 1628.21 209.893 1629.39L206.176 1632.9L204.141 1634.96L201.684 1637.69L200.658 1633.17L205.324 1628.42C207.594 1626.13 208.789 1624.89 208.91 1624.69C209.905 1623.29 210.202 1621.71 209.801 1619.94L209.448 1618.38L197.9 1621L197.034 1617.17L223.64 1611.14L224.506 1614.97L212.881 1617.6L213.429 1620.02L213.457 1620.51L226.787 1625.03ZM231.788 1646.38L207.731 1664.38L206.847 1660.48L213.914 1655.11L211.351 1643.79L202.71 1642.22L201.826 1638.32L231.187 1643.73L231.788 1646.38ZM225.618 1646.3L215.12 1644.5L216.994 1652.77L225.618 1646.3ZM235.502 1663.49L237.394 1671.84C237.965 1674.37 237.785 1676.53 236.852 1678.32C235.86 1680.22 234.128 1681.44 231.657 1682C229.134 1682.57 227.032 1682.11 225.351 1680.6C223.848 1679.27 222.801 1677.31 222.212 1674.71L221.31 1670.73L209.763 1673.35L208.897 1669.52L235.502 1663.49ZM232.935 1668.1L224.743 1669.95L225.733 1674.32C226.051 1675.73 226.659 1676.78 227.556 1677.48C228.452 1678.18 229.577 1678.37 230.929 1678.07C233.634 1677.45 234.644 1675.64 233.961 1672.62L232.935 1668.1ZM226.927 1687.19C230.932 1686.28 234.537 1686.93 237.742 1689.13C240.878 1691.26 242.902 1694.34 243.816 1698.37C244.747 1702.48 244.281 1706.16 242.417 1709.4C240.487 1712.7 237.48 1714.82 233.397 1715.75C229.314 1716.67 225.689 1716.06 222.521 1713.9C219.38 1711.74 217.343 1708.61 216.412 1704.5C215.499 1700.47 216.02 1696.8 217.976 1693.48C219.938 1690.2 222.921 1688.1 226.927 1687.19ZM227.811 1691.09C224.872 1691.76 222.664 1693.3 221.187 1695.71C219.743 1698.14 219.353 1700.83 220.019 1703.77C220.691 1706.73 222.2 1708.99 224.546 1710.53C226.893 1712.08 229.548 1712.52 232.513 1711.84C235.478 1711.17 237.686 1709.63 239.137 1707.23C240.587 1704.82 240.977 1702.13 240.305 1699.17C239.627 1696.18 238.115 1693.91 235.769 1692.36C233.454 1690.84 230.801 1690.41 227.811 1691.09ZM253.041 1740.89L226.435 1746.92L225.569 1743.1L237.194 1740.47L233.817 1725.56L222.192 1728.2L221.326 1724.38L247.931 1718.35L248.798 1722.17L237.25 1724.79L240.627 1739.69L252.174 1737.07L253.041 1740.89ZM230.416 1764.49L257.021 1758.46L260.593 1774.22L257.16 1775L254.455 1763.06L246.887 1764.78L248.319 1771.1C248.814 1773.28 248.438 1775.36 247.191 1777.34C245.944 1779.32 244.228 1780.56 242.043 1781.05L241.809 1781.1C239.442 1781.64 237.378 1781.1 235.615 1779.47C234.088 1778.04 233.044 1776.09 232.484 1773.62L230.416 1764.49ZM243.454 1765.56L234.715 1767.54L235.794 1772.3C236.354 1774.77 237.413 1776.3 238.971 1776.91C239.69 1777.18 240.465 1777.22 241.297 1777.04C242.858 1776.68 243.893 1775.82 244.402 1774.45C244.848 1773.28 244.886 1771.88 244.514 1770.24L243.454 1765.56ZM262.046 1780.63L262.859 1784.22L241.949 1788.96L266.854 1801.86L267.632 1805.29L241.027 1811.32L240.178 1807.57L261.166 1802.82L236.183 1789.94L235.44 1786.66L262.046 1780.63ZM261.967 1812.14L268.832 1810.59L269.681 1814.33L263.127 1815.82C261.151 1816.26 260.035 1817.43 259.779 1819.32C259.625 1820.45 259.822 1822.22 260.37 1824.64L261.006 1827.45L272.086 1824.94L272.952 1828.76L246.346 1834.79L245.48 1830.97L257.729 1828.19L256.651 1823.44C255.897 1820.11 255.795 1817.67 256.347 1816.12C257.051 1814.16 258.924 1812.83 261.967 1812.14Z" fill="white"/>
<path d="M326.272 1698.38V1691.34H330.112V1698.06C330.112 1700.08 331.005 1701.43 332.792 1702.1C333.858 1702.5 335.632 1702.7 338.112 1702.7H340.992V1691.34H344.912V1718.62H340.992V1706.06H336.112C332.698 1706.06 330.298 1705.62 328.912 1704.74C327.152 1703.62 326.272 1701.5 326.272 1698.38ZM364.345 1691.18L376.585 1718.62H372.585L368.905 1710.54H357.305L353.865 1718.62H349.865L361.625 1691.18H364.345ZM362.905 1697.18L358.825 1707.02H367.305L362.905 1697.18ZM391.298 1691.18L403.458 1718.62H399.058L389.858 1697.18L381.378 1718.62H377.378L388.578 1691.18H391.298ZM406.901 1704.94C406.901 1700.83 408.327 1697.46 411.181 1694.82C413.954 1692.23 417.407 1690.94 421.541 1690.94C425.754 1690.94 429.234 1692.2 431.981 1694.74C434.781 1697.35 436.181 1700.75 436.181 1704.94C436.181 1709.12 434.781 1712.52 431.981 1715.14C429.181 1717.72 425.674 1719.02 421.461 1719.02C417.327 1719.02 413.861 1717.7 411.061 1715.06C408.287 1712.42 406.901 1709.04 406.901 1704.94ZM410.901 1704.94C410.901 1707.95 411.914 1710.44 413.941 1712.42C415.994 1714.36 418.527 1715.34 421.541 1715.34C424.581 1715.34 427.114 1714.36 429.141 1712.42C431.167 1710.47 432.181 1707.98 432.181 1704.94C432.181 1701.9 431.167 1699.4 429.141 1697.46C427.114 1695.51 424.581 1694.54 421.541 1694.54C418.474 1694.54 415.927 1695.51 413.901 1697.46C411.901 1699.38 410.901 1701.87 410.901 1704.94ZM465.049 1691.34V1718.62H461.129V1706.7H445.849V1718.62H441.929V1691.34H445.849V1703.18H461.129V1691.34H465.049ZM471.46 1718.62V1691.34H485.22V1694.86H475.38V1718.62H471.46Z" fill="white"/>
<path d="M359.898 360.102C358.408 358.611 355.983 358.636 354.524 360.157L346.534 368.483L327.037 362.03L322.945 366.123L339.196 376.129L330.973 384.698L325.699 383.833L322 387.532L329.753 390.247L332.468 398L336.168 394.301L335.302 389.027L343.871 380.804L353.877 397.055L357.97 392.963L351.518 373.466L359.843 365.476C361.364 364.017 361.389 361.592 359.898 360.102Z" fill="white"/>
<circle cx="546" cy="1473" r="5" fill="white"/>
</svg>
